<?xml version="1.0" encoding="UTF-8"?><svg id="Laag_2" xmlns="http://www.w3.org/2000/svg" viewBox="0 0 226.06 212.15"><defs><style>.cls-1,.cls-2{fill:none;}.cls-1,.cls-2,.cls-3{stroke-miterlimit:10;}.cls-1,.cls-3{stroke:#000;stroke-width:6px;}.cls-2{stroke:#823a37;stroke-width:4px;}.cls-3,.cls-4{fill:#c17052;}.cls-5{fill:#ac5346;}.cls-5,.cls-6,.cls-4{stroke-width:0px;}.cls-6{fill:#db9364;}</style></defs><g id="harry"><g id="Laag_22"><path class="cls-4" d="m13.01,3.01h201c1.76.07,4.07.46,6,2,3.4,2.71,3.1,6.96,3,22-.09,12.87.09,16.92-3,19-1.89,1.27-4.19,1.26-6,.98-6.69,37.84-16.63,78.11-31.12,119.9-2.59,7.48-5.26,14.81-8,22-6.33.67-12.67,1.33-19,2,5.37,5.71,10.75,11.41,16.12,17.12-55.8,1.68-98.13,1.37-117.37,0-4.08-.29-12.53-1.09-19.63-7-10.79-8.98-11-22.11-11-24-3.67-43.08-7.33-86.17-11-129.25-2.11.14-4.83-.08-7-1.75-3.15-2.43-3.03-6.3-3-21,.02-13.8-.07-17.52,3-20,2.24-1.8,5.04-2.06,7-2Z"/><path class="cls-5" d="m154.07,43.21l-3.06,134.8s-1.4,24-25.7,30h37.56c3.01-.04,6.01-.08,9.02-.12-5.33-5.67-10.67-11.33-16-17,6.33-.67,12.67-1.33,19-2l6-15h15l-9-21c6.33,1.67,12.67,3.33,19,5,2.23-31.3,4.46-62.6,6.69-93.91l1.43-22.98-59.94,2.2Z"/><path class="cls-6" d="m38.01,5.01s-4,3-4,10v28.2h35V10.78s-.59-5.79,4.21-7.78-35.21,2.01-35.21,2.01Z"/><path class="cls-6" d="m40.28,45.01l11.73,133s1.06,19,21.03,30h23.09s-18.12-11-20.12-34l-3.51-130.8-32.22,1.8Z"/><line class="cls-2" x1="12.01" y1="45.01" x2="217.01" y2="45.01"/><path class="cls-5" d="m6.47,37.5s1.01,4.18,5.04,3.13h148.05V10.04s0-3.86-3.02-4.9v-3.13l60.43,1.53,5.1,4.56v36.91H3.45l-.45-5.7.45-1.81h3.02Z"/><path class="cls-1" d="m13.01,3.01h201c1.76.07,4.07.46,6,2,3.4,2.71,3.1,6.96,3,22-.09,12.87.09,16.92-3,19-1.89,1.27-4.19,1.26-6,.98-2.2,23.68-4.24,47.65-6.12,71.9-1.07,13.75-2.06,27.42-3,41-6-2.33-12-4.67-18-7,3.67,7.33,7.33,14.67,11,22-5.67-.33-11.33-.67-17-1l-6,15c-7.33.33-14.67.67-22,1,6.37,6.04,12.75,12.08,19.12,18.12-55.8,1.68-98.13,1.37-117.37,0-4.08-.29-12.53-1.09-19.63-7-10.79-8.98-11-22.11-11-24-3.67-43.08-7.33-86.17-11-129.25-2.11.14-4.83-.08-7-1.75-3.15-2.43-3.03-6.3-3-21,.02-13.8-.07-17.52,3-20,2.24-1.8,5.04-2.06,7-2Z"/><path class="cls-3" d="m203.89,159.89c-.41,5.71-.83,11.41-1.24,17.12-.63,8.67-3.51,17.43-10.88,23.88-6.77,5.93-15.05,6.99-19.75,7.12-6.71-6.04-13.42-12.08-20.13-18.12,7.33-.33,14.67-.67,22-1l6-15c4.67-1.33,9.33-2.67,14-4-2-5.33-4-10.67-6-16,5.33,2,10.67,4,16,6Z"/></g></g></svg>