<svg width="444" height="481" viewBox="0 0 444 481" fill="none" xmlns="http://www.w3.org/2000/svg">
<path d="M146.542 364.634C139.956 363.805 131.704 362.084 121.966 358.16C99.161 348.529 104.01 345.73 121.939 351.812C132.168 355.413 148.717 355.244 160.524 353.826C162.606 351.657 164.689 349.489 166.771 347.32C154.254 340.853 129.399 326.605 109.021 309.009C80.6754 284.332 82.8501 274.942 113.663 301.175C136.078 320.213 161.053 333.586 173.629 339.617C174.671 338.533 175.281 337.335 176.322 336.25C180.056 331.8 183.85 326.912 187.643 322.024C178.057 310.441 153.996 280.553 132.211 250.358C104.853 211.902 123.002 226.194 138.605 249.325C150.493 266.949 182.494 297.571 196.331 310.727C207.222 296.387 218.603 281.723 230.474 266.736C223.164 254.847 206.684 228.314 193.953 200.505C176.75 162.913 187.808 173.526 204.925 205.207C217.39 228.418 231.627 248.472 238.061 256.96C254.828 235.564 271.654 213.73 287.379 193.418C282.164 182.534 265.956 147.468 262.963 123.583C259.79 101.01 264.175 104.882 270.365 128.251C275.621 148.656 290.448 177.47 294.356 184.84C339.389 126.509 343.925 122.723 343.925 122.723C343.925 122.723 287.672 204.364 269.758 230.893C274.886 235.867 284.266 242.414 296.65 246.582C315.502 252.454 319.336 257.088 298.521 252.51C282.88 249.295 269.129 242.049 263.272 239.147C250.313 258.829 236.923 278.398 224.945 297.433C229.761 301.419 240.687 309.732 260.653 317.257C288.691 327.814 292.049 335.944 259.579 325.125C237.769 318.021 224.33 311.763 217.67 308.197C211.316 318.75 205.082 328.43 199.279 338.223C209.608 350.907 237.802 383.243 260.634 399.221C289.635 419.09 292.236 422.945 259.115 403.803C233.457 388.891 203.566 362.449 191.705 351.172C189.384 355.089 187.554 358.683 185.292 362.163C189.021 370.844 196.896 385.146 209.009 397.848C227.795 417.289 225.236 422.955 202.436 400.192C191.066 388.592 184.319 379.116 180.783 372.297C172.64 395.965 185 423.224 192.801 434.789C242.224 511.212 356.297 483.751 402.211 415.689C437.547 362.955 310.19 333.93 330.332 310.706C350.965 287.158 443.434 401.641 443.369 271.197C443.423 211.885 370.628 237.994 363.933 211.775C353.362 171.402 439.844 238.115 439.035 178.575C438.363 150.773 435.562 128.75 428.812 89.8364C422.063 50.9228 412.097 22.4836 412.097 22.4836C412.097 22.4836 378.204 38.462 345.303 27.5297C311.971 16.4838 267.599 -15.1325 240.333 11.1966C192.971 57.1392 247.376 133.063 217.208 128.285C193.568 124.774 180.806 61.1802 187.569 31.2609C195.241 -2.04204 115.704 1.45863 108.976 54.0308C98.4499 124.623 171.121 184.527 164.569 206.35C155.71 235.264 112.781 166.892 99.22 132.071C85.6589 97.2506 12.267 127.731 1.64822 205.544C-11.7744 303.904 70.6454 413.475 146.542 364.634Z" fill="white"/>
</svg>
