<svg width="1478" height="1478" viewBox="0 0 1478 1478" fill="none" xmlns="http://www.w3.org/2000/svg">
<g clip-path="url(#clip0_212_169)">
<path d="M707.389 659.604C707.389 659.604 679.64 671.222 657.371 652.725C635.103 634.227 592.86 591.19 592.86 591.19L647.973 480.317L579.334 578.288L485.515 488.799L529.303 294.194L465.967 470.153L332.605 342.945L333.945 198.331L321.69 332.533L165.98 184.009C192.01 212.552 222.664 245.09 255.898 279.867L186.741 276.21L269.475 294.051C297.926 323.724 327.999 354.809 358.485 386.265L251.557 385.762L366.009 394.027C371.299 399.485 376.599 404.951 381.902 410.421C416.895 446.512 452.023 482.743 485.479 517.562L349.535 533.748L497.708 530.304C534.788 568.991 569.48 605.658 599.224 638.106L546.724 650.237L608.859 648.662C635.19 677.632 657.095 702.829 672.581 722.542C623.45 709.315 516.804 690.811 467.644 718.896C417.824 747.359 450.858 701.876 473.602 675.577C496.618 641.96 513.867 581.802 398.739 610.107C283.611 638.412 260.284 635.851 263.011 631.032C270.682 620.809 280.346 602.026 257.627 608.675C230.725 616.549 151.193 614.655 117.008 610.874C115.366 610.693 114.994 608.539 116.457 607.774C146.376 592.121 194.776 565.02 200.703 555.034C200.838 554.807 200.986 554.535 201.146 554.241C201.843 552.963 202.774 551.254 203.863 550.904C235.032 540.875 293.413 521.229 301.513 515.088C302.675 514.206 304.357 513.154 306.298 511.94C321.876 502.195 354.129 482.02 268.285 456.006C254.501 451.829 242.397 448.113 231.714 444.833C178.982 428.644 160.872 423.084 146.205 425.183C144.329 425.452 135.812 420.836 134.334 419.651C128.981 415.358 117.015 409.84 93.1471 403.721C52.3861 393.273 41.1833 379.626 40.3111 372.722C40.196 371.811 41.0025 371.161 41.9152 371.261C80.5327 375.498 160.989 380.292 186.575 366.758C219.009 349.603 157.348 292.251 134.382 281.574C130.504 279.771 126.821 278.102 123.307 276.509C107.555 269.371 95.1715 263.758 83.6193 254.433C82.4111 253.458 83.1058 251.541 84.658 251.498C98.9439 251.107 122.686 249.13 130.232 243.408C140.725 235.453 152.867 215.509 122.452 190.649C109.237 179.848 98.6776 171.778 91.0464 166.205C89.411 165.01 91.3767 160.665 93.3903 160.88C106.526 162.287 117.029 157.841 102.806 135.316C84.7304 106.69 81.9599 76.6057 82.9468 62.0394C83.0445 60.5974 84.7919 60.0613 85.7509 61.1426L145.824 128.881C145.916 128.985 146.017 129.075 146.131 129.152C160.066 138.639 184.853 149.049 181.112 121.411C180.877 119.675 183.13 118.503 184.307 119.8L250.053 192.225C268.435 215.742 307.381 246.913 316.109 183.452C321.805 142.035 322.3 117.09 321.169 103.517C321.005 101.54 321.917 101.362 322.521 103.252L347.436 181.182C350.28 189.183 356.99 201.518 363.009 193.616C363.913 192.43 365.909 192.481 366.458 193.866L416.634 320.393C425.208 340.057 448.139 367.399 471.274 319.453C498.631 262.758 556.233 175.738 578.07 162.298C579.314 161.533 580.416 162.793 579.769 164.103C569.864 184.155 556.188 215.064 562.989 213.791C564.543 213.5 566.45 214.409 566.21 215.972C562.29 241.526 560.35 282.876 579.934 274.248C594.669 267.756 603.992 263.157 609.033 260.476C610.438 259.728 612.188 261.141 611.696 262.655C596.654 309.031 569.245 396.054 569.299 406.242C569.308 407.99 568.944 411.128 568.483 415.103C565.469 441.062 558.314 502.705 624.019 445.723C666.667 408.737 683.46 390.808 688.49 383.268C685.776 395.204 684.25 409.912 694.48 398.083C697.581 394.498 701.525 390.386 705.835 385.891C719.945 371.18 737.98 352.375 743.213 334.56C741.363 347.909 738.314 371.217 735.87 389.896C734.281 402.04 732.948 412.228 732.367 416.452C732.022 418.96 731.536 421.618 731.046 424.297C728.475 438.366 725.794 453.033 742.812 449.843C746.353 449.179 749.547 448.237 752.401 447.129C754.353 446.371 757.396 449.823 756.085 451.455C721.894 494.016 672.259 559.655 669.616 578.872C669.008 583.292 668.335 587.08 667.758 590.326C664.724 607.404 664.352 609.503 690.098 609.885C720.739 610.339 742.046 605.751 747.8 598.084C748.249 597.485 748.171 597.593 747.652 598.312C744.436 602.764 724.301 630.645 707.389 659.604Z" fill="white" fill-opacity="0.1"/>
<path d="M744.546 327.897C744.326 330.096 743.871 332.32 743.213 334.56C744.625 324.366 745.338 319.979 744.546 327.897Z" fill="white" fill-opacity="0.1"/>
<path d="M688.49 383.268C689.569 381.651 690.106 380.512 690.242 379.764C690.395 378.925 689.473 379.235 689.262 380.062C689 381.092 688.74 382.168 688.49 383.268Z" fill="white" fill-opacity="0.1"/>
<path d="M369.515 1255.43C369.515 1255.43 360.021 1259.4 352.403 1253.07C344.784 1246.75 330.332 1232.02 330.332 1232.02L349.188 1194.09L325.705 1227.61L293.607 1196.99L308.588 1130.41L286.92 1190.61L241.293 1147.09L241.752 1097.62L237.559 1143.53L184.288 1092.72C193.193 1102.48 203.68 1113.61 215.05 1125.51L191.39 1124.26L219.695 1130.36C229.429 1140.52 239.718 1151.15 250.147 1161.91L213.565 1161.74L252.722 1164.57C254.532 1166.44 256.345 1168.31 258.159 1170.18C270.131 1182.53 282.149 1194.92 293.595 1206.83L247.086 1212.37L297.779 1211.19C310.465 1224.43 322.334 1236.97 332.51 1248.07L314.548 1252.22L335.806 1251.68C344.814 1261.6 352.308 1270.22 357.607 1276.96C340.798 1272.44 304.312 1266.11 287.493 1275.71C270.449 1285.45 281.75 1269.89 289.532 1260.89C297.406 1249.39 303.307 1228.81 263.919 1238.49C224.532 1248.18 216.551 1247.3 217.484 1245.65C220.108 1242.16 223.414 1235.73 215.642 1238C206.438 1240.7 179.229 1240.05 167.533 1238.76C166.971 1238.69 166.844 1237.96 167.345 1237.7C177.581 1232.34 194.139 1223.07 196.167 1219.65C196.213 1219.58 196.264 1219.48 196.319 1219.38C196.557 1218.94 196.875 1218.36 197.248 1218.24C207.912 1214.81 227.885 1208.09 230.656 1205.99C231.054 1205.68 231.629 1205.32 232.293 1204.91C237.623 1201.58 248.657 1194.67 219.288 1185.77C214.572 1184.34 210.431 1183.07 206.776 1181.95C188.736 1176.41 182.54 1174.51 177.522 1175.23C176.88 1175.32 173.966 1173.74 173.461 1173.34C171.629 1171.87 167.536 1169.98 159.37 1167.89C145.425 1164.31 141.592 1159.64 141.293 1157.28C141.254 1156.97 141.53 1156.75 141.842 1156.78C155.054 1158.23 182.58 1159.87 191.334 1155.24C202.43 1149.37 181.334 1129.75 173.477 1126.1C172.15 1125.48 170.89 1124.91 169.688 1124.36C164.299 1121.92 160.062 1120 156.11 1116.81C155.697 1116.48 155.934 1115.82 156.465 1115.81C161.353 1115.67 169.476 1115 172.057 1113.04C175.647 1110.32 179.801 1103.49 169.395 1094.99C164.874 1091.29 161.262 1088.53 158.651 1086.63C158.092 1086.22 158.764 1084.73 159.453 1084.8C163.947 1085.29 167.54 1083.76 162.674 1076.06C156.49 1066.26 155.542 1055.97 155.88 1050.99C155.913 1050.5 156.511 1050.31 156.839 1050.68L177.392 1073.86C177.423 1073.89 177.458 1073.92 177.497 1073.95C182.264 1077.2 190.744 1080.76 189.464 1071.3C189.384 1070.71 190.155 1070.31 190.558 1070.75L213.051 1095.53C219.34 1103.57 232.664 1114.24 235.65 1092.53C237.599 1078.36 237.768 1069.82 237.381 1065.18C237.325 1064.5 237.637 1064.44 237.844 1065.09L246.367 1091.75C247.341 1094.49 249.636 1098.71 251.695 1096C252.005 1095.6 252.687 1095.62 252.875 1096.09L270.042 1139.38C272.975 1146.1 280.82 1155.46 288.735 1139.06C298.095 1119.66 317.801 1089.89 325.272 1085.29C325.698 1085.03 326.075 1085.46 325.854 1085.91C322.465 1092.77 317.786 1103.34 320.113 1102.91C320.645 1102.81 321.297 1103.12 321.215 1103.65C319.874 1112.39 319.21 1126.54 325.91 1123.59C330.951 1121.37 334.141 1119.8 335.866 1118.88C336.346 1118.62 336.945 1119.11 336.777 1119.62C331.63 1135.49 322.253 1165.26 322.272 1168.75C322.275 1169.35 322.15 1170.42 321.992 1171.78C320.961 1180.66 318.513 1201.75 340.992 1182.26C355.583 1169.6 361.329 1163.47 363.049 1160.89C362.121 1164.97 361.599 1170 365.099 1165.96C366.16 1164.73 367.509 1163.32 368.984 1161.79C373.811 1156.75 379.981 1150.32 381.771 1144.22C381.139 1148.79 380.095 1156.76 379.259 1163.16C378.715 1167.31 378.259 1170.8 378.061 1172.24C377.943 1173.1 377.776 1174.01 377.609 1174.92C376.729 1179.74 375.812 1184.76 381.634 1183.66C382.846 1183.44 383.938 1183.12 384.915 1182.74C385.582 1182.48 386.624 1183.66 386.175 1184.22C374.478 1198.78 357.496 1221.23 356.592 1227.81C356.384 1229.32 356.154 1230.62 355.957 1231.73C354.919 1237.57 354.791 1238.29 363.6 1238.42C374.082 1238.57 381.372 1237 383.341 1234.38C383.494 1234.18 383.468 1234.21 383.29 1234.46C382.19 1235.98 375.301 1245.52 369.515 1255.43Z" fill="white" fill-opacity="0.1"/>
<path d="M382.227 1141.94C382.152 1142.7 381.996 1143.46 381.771 1144.22C382.254 1140.74 382.498 1139.24 382.227 1141.94Z" fill="white" fill-opacity="0.1"/>
<path d="M363.049 1160.89C363.418 1160.33 363.602 1159.94 363.649 1159.69C363.701 1159.4 363.386 1159.51 363.314 1159.79C363.224 1160.14 363.135 1160.51 363.049 1160.89Z" fill="white" fill-opacity="0.1"/>
<path d="M1138.14 183.339C1138.14 183.339 1148.06 180.58 1154.83 187.81C1161.6 195.04 1174.1 211.452 1174.1 211.452L1150.66 246.734L1178.14 216.409L1206.17 250.791L1182.99 314.98L1212 257.955L1251.84 306.83L1245.21 355.861L1255.1 310.83L1301.62 367.894C1294 357.094 1284.98 344.74 1275.19 331.516L1298.51 335.711L1271.18 326.122C1262.79 314.835 1253.91 302.999 1244.91 291.02L1281.18 295.756L1242.68 288.064C1241.12 285.985 1239.56 283.904 1237.99 281.821C1227.65 268.075 1217.28 254.277 1207.41 241.03L1254.24 241.339L1203.8 236.182C1192.86 221.467 1182.65 207.539 1173.94 195.255L1192.28 193.378L1171.12 191.26C1163.42 180.302 1157.06 170.814 1152.65 163.461C1168.76 170.049 1204.17 180.883 1222.06 173.449C1240.18 165.914 1227.03 179.943 1218.18 187.899C1208.94 198.327 1200.51 218.011 1240.8 213.319C1281.09 208.626 1288.9 210.492 1287.77 212.011C1284.73 215.154 1280.64 221.117 1288.64 219.83C1298.11 218.306 1325.02 222.344 1336.47 225.087C1337.02 225.219 1337.05 225.966 1336.52 226.163C1325.7 230.199 1308.11 237.332 1305.67 240.469C1305.62 240.54 1305.55 240.626 1305.49 240.719C1305.2 241.123 1304.81 241.663 1304.42 241.736C1293.41 243.809 1272.76 247.985 1269.75 249.724C1269.31 249.974 1268.7 250.259 1267.99 250.588C1262.28 253.231 1250.47 258.702 1278.5 271.198C1283 273.204 1286.95 274.982 1290.44 276.552C1307.65 284.299 1313.56 286.959 1318.63 286.873C1319.28 286.862 1321.97 288.792 1322.42 289.258C1324.05 290.943 1327.88 293.327 1335.72 296.423C1349.11 301.71 1352.33 306.821 1352.33 309.202C1352.33 309.516 1352.03 309.702 1351.73 309.629C1338.8 306.542 1311.69 301.48 1302.43 304.981C1290.69 309.42 1309.17 331.52 1316.51 336.125C1317.75 336.903 1318.93 337.627 1320.05 338.317C1325.09 341.413 1329.06 343.847 1332.58 347.506C1332.95 347.888 1332.63 348.509 1332.1 348.457C1327.24 347.98 1319.09 347.638 1316.29 349.258C1312.39 351.51 1307.41 357.762 1316.68 367.499C1320.7 371.729 1323.94 374.92 1326.29 377.137C1326.8 377.613 1325.94 379.004 1325.27 378.845C1320.87 377.806 1317.12 378.867 1320.98 387.12C1325.9 397.609 1325.55 407.939 1324.59 412.842C1324.5 413.327 1323.88 413.434 1323.6 413.026L1306.11 387.468C1306.08 387.429 1306.05 387.394 1306.01 387.363C1301.69 383.548 1293.72 378.956 1293.81 388.497C1293.81 389.096 1293 389.398 1292.65 388.907L1273.43 361.516C1268.19 352.748 1256.3 340.505 1250.63 361.673C1246.93 375.489 1245.7 383.936 1245.5 388.591C1245.47 389.269 1245.16 389.291 1245.03 388.623L1239.9 361.107C1239.28 358.269 1237.53 353.796 1235.15 356.221C1234.79 356.585 1234.11 356.483 1233.99 355.989L1222.36 310.897C1220.29 303.856 1213.67 293.596 1203.77 308.883C1192.06 326.96 1168.79 354.04 1160.81 357.669C1160.35 357.876 1160.03 357.401 1160.31 356.984C1164.53 350.601 1170.49 340.692 1168.13 340.834C1167.59 340.867 1166.98 340.477 1167.13 339.956C1169.55 331.45 1171.97 317.496 1164.95 319.589C1159.68 321.163 1156.31 322.326 1154.49 323.021C1153.98 323.215 1153.45 322.661 1153.68 322.168C1160.76 307.068 1173.78 278.699 1174.2 275.238C1174.27 274.644 1174.53 273.594 1174.86 272.265C1176.99 263.582 1182.05 242.963 1157.31 259.5C1141.26 270.234 1134.79 275.603 1132.76 277.947C1134.19 274.012 1135.34 269.084 1131.36 272.663C1130.15 273.747 1128.64 274.975 1126.98 276.316C1121.57 280.708 1114.64 286.321 1112.11 292.145C1113.3 287.692 1115.33 279.911 1116.96 273.675C1118.02 269.62 1118.91 266.219 1119.28 264.81C1119.51 263.973 1119.79 263.092 1120.07 262.203C1121.54 257.537 1123.08 252.673 1117.16 253.029C1115.93 253.104 1114.81 253.287 1113.79 253.541C1113.1 253.715 1112.21 252.413 1112.73 251.915C1126.15 238.928 1145.8 218.766 1147.52 212.356C1147.91 210.882 1148.3 209.625 1148.64 208.547C1150.4 202.88 1150.61 202.183 1141.89 200.954C1131.51 199.492 1124.08 200.14 1121.8 202.497C1121.62 202.681 1121.65 202.647 1121.86 202.425C1123.14 201.051 1131.17 192.447 1138.14 183.339Z" fill="white" fill-opacity="0.1"/>
<path d="M1111.37 294.35C1111.54 293.613 1111.79 292.877 1112.11 292.145C1111.19 295.545 1110.76 297.004 1111.37 294.35Z" fill="white" fill-opacity="0.1"/>
<path d="M1132.76 277.947C1132.33 278.45 1132.09 278.814 1132.02 279.062C1131.93 279.34 1132.25 279.274 1132.36 279.003C1132.49 278.664 1132.63 278.31 1132.76 277.947Z" fill="white" fill-opacity="0.1"/>
<path d="M812.309 768.278C812.309 768.278 841.292 760.213 861.078 781.345C880.863 802.477 917.405 850.449 917.405 850.449L848.886 953.578L929.215 864.938L1011.13 965.436L943.4 1153.06L1028.2 986.376L1144.64 1129.23L1125.27 1272.55L1154.18 1140.93L1290.13 1307.72C1267.87 1276.15 1241.51 1240.04 1212.88 1201.39L1281.04 1213.65L1201.18 1185.62C1176.65 1152.63 1150.7 1118.04 1124.37 1083.02L1230.4 1096.86L1117.88 1074.38C1113.31 1068.31 1108.73 1062.22 1104.15 1056.13C1073.94 1015.96 1043.61 975.625 1014.76 936.903L1151.66 937.809L1004.21 922.734C972.252 879.722 942.407 839.013 916.946 803.106L970.549 797.622L908.703 791.431C886.194 759.401 867.605 731.667 854.699 710.175C901.796 729.43 1005.3 761.099 1057.58 739.368C1110.56 717.346 1072.11 758.35 1046.26 781.606C1019.23 812.087 994.609 869.622 1112.37 855.906C1230.13 842.19 1252.95 847.643 1249.65 852.083C1240.76 861.269 1228.83 878.7 1252.2 874.937C1279.87 870.482 1358.55 882.287 1391.99 890.304C1393.6 890.689 1393.7 892.873 1392.15 893.45C1360.51 905.246 1309.11 926.095 1301.98 935.263C1301.82 935.472 1301.64 935.723 1301.45 935.995C1300.59 937.176 1299.46 938.755 1298.33 938.967C1266.16 945.028 1205.78 957.234 1196.98 962.316C1195.71 963.046 1193.91 963.88 1191.84 964.842C1175.16 972.567 1140.65 988.56 1222.57 1025.08C1235.73 1030.95 1247.27 1036.14 1257.46 1040.73C1307.76 1063.38 1325.04 1071.15 1339.85 1070.9C1341.75 1070.87 1349.62 1076.51 1350.94 1077.87C1355.71 1082.8 1366.9 1089.77 1389.82 1098.82C1428.95 1114.27 1438.37 1129.21 1438.37 1136.17C1438.37 1137.08 1437.49 1137.63 1436.6 1137.42C1398.81 1128.39 1319.58 1113.6 1292.5 1123.83C1258.18 1136.8 1312.2 1201.4 1333.66 1214.86C1337.28 1217.14 1340.73 1219.25 1344.02 1221.27C1358.75 1230.32 1370.34 1237.43 1380.64 1248.13C1381.71 1249.24 1380.79 1251.06 1379.24 1250.91C1365.02 1249.51 1341.21 1248.51 1333.01 1253.25C1321.61 1259.83 1307.07 1278.1 1334.15 1306.57C1345.91 1318.93 1355.38 1328.26 1362.26 1334.74C1363.73 1336.13 1361.24 1340.19 1359.27 1339.73C1346.41 1336.69 1335.43 1339.79 1346.74 1363.92C1361.1 1394.57 1360.09 1424.77 1357.29 1439.1C1357.02 1440.52 1355.22 1440.83 1354.4 1439.64L1303.25 1364.93C1303.17 1364.82 1303.08 1364.72 1302.98 1364.63C1290.34 1353.47 1267.04 1340.05 1267.31 1367.94C1267.32 1369.69 1264.94 1370.57 1263.94 1369.14L1207.74 1289.08C1192.44 1263.45 1157.69 1227.66 1141.11 1289.54C1130.29 1329.92 1126.68 1354.61 1126.11 1368.22C1126.03 1370.2 1125.1 1370.26 1124.74 1368.31L1109.74 1287.88C1107.92 1279.59 1102.8 1266.51 1095.84 1273.6C1094.8 1274.66 1092.82 1274.36 1092.45 1272.92L1058.46 1141.12C1052.41 1120.54 1033.07 1090.55 1004.13 1135.24C969.909 1188.07 901.898 1267.22 878.554 1277.83C877.224 1278.44 876.289 1277.05 877.094 1275.83C889.424 1257.17 906.851 1228.21 899.944 1228.63C898.365 1228.72 896.587 1227.58 897.02 1226.06C904.099 1201.2 911.183 1160.41 890.676 1166.53C875.246 1171.13 865.422 1174.53 860.086 1176.56C858.598 1177.13 857.039 1175.51 857.715 1174.07C878.428 1129.93 916.482 1047.01 917.701 1036.89C917.91 1035.16 918.663 1032.09 919.616 1028.2C925.846 1002.82 940.639 942.554 868.336 990.891C821.405 1022.27 802.506 1037.96 796.574 1044.81C800.757 1033.31 804.106 1018.91 792.48 1029.36C788.956 1032.54 784.529 1036.12 779.692 1040.04C763.856 1052.88 743.615 1069.29 736.201 1086.31C739.702 1073.3 745.636 1050.55 750.392 1032.32C753.484 1020.47 756.078 1010.53 757.182 1006.41C757.837 1003.97 758.651 1001.39 759.471 998.792C763.778 985.154 768.268 970.937 750.985 971.978C747.389 972.195 744.103 972.73 741.132 973.474C739.102 973.983 736.513 970.178 738.017 968.722C777.253 930.761 834.691 871.829 839.712 853.092C840.867 848.783 842.007 845.109 842.984 841.96C848.126 825.394 848.757 823.358 823.26 819.766C792.916 815.491 771.202 817.384 764.537 824.274C764.016 824.812 764.107 824.714 764.712 824.065C768.458 820.049 791.915 794.9 812.309 768.278Z" fill="white" fill-opacity="0.1"/>
<path d="M734.046 1092.75C734.539 1090.6 735.268 1088.45 736.201 1086.31C733.527 1096.25 732.273 1100.51 734.046 1092.75Z" fill="white" fill-opacity="0.1"/>
<path d="M796.574 1044.81C795.302 1046.28 794.626 1047.34 794.398 1048.07C794.142 1048.88 795.096 1048.69 795.408 1047.9C795.796 1046.91 796.189 1045.87 796.574 1044.81Z" fill="white" fill-opacity="0.1"/>
</g>
<defs>
<clipPath id="clip0_212_169">
<rect width="1478" height="1478" fill="white"/>
</clipPath>
</defs>
</svg>
