<?xml version="1.0" encoding="UTF-8"?><svg id="Laag_2" xmlns="http://www.w3.org/2000/svg" viewBox="0 0 261.94 342.11"><defs><style>.cls-1{stroke-width:3px;}.cls-1,.cls-2,.cls-3,.cls-4,.cls-5,.cls-6,.cls-7,.cls-8{stroke-miterlimit:10;}.cls-1,.cls-2,.cls-3,.cls-4,.cls-5,.cls-7,.cls-8{stroke:#000;}.cls-1,.cls-2,.cls-5,.cls-6{fill:none;}.cls-2,.cls-8{stroke-width:6px;}.cls-3{fill:#ff7bac;}.cls-3,.cls-5,.cls-7{stroke-width:2px;}.cls-4{fill:#a9db54;}.cls-6{stroke:#823a37;stroke-width:4px;}.cls-9,.cls-10,.cls-11,.cls-12,.cls-13,.cls-14{stroke-width:0px;}.cls-8,.cls-13{fill:#c17052;}.cls-10{fill:#75a833;}.cls-11{fill:#ac5346;}.cls-12{fill:#db9364;}.cls-14{fill:#fff;}</style></defs><g id="harry"><path id="been_l" class="cls-8" d="m79.55,297.11l8.36,34.18c1.25,5.24,5.73,8.47,10,7.72,3.41-.6,6.26-3.67,7.12-7.72,1.58-11.39,3.16-22.78,4.74-34.18h-30.22Z"/><path id="been_r" class="cls-8" d="m179.77,297.11l-8.36,34.18c-1.25,5.24-5.73,8.47-10,7.72-3.41-.6-6.26-3.67-7.12-7.72-1.58-11.39-3.16-22.78-4.74-34.18h30.22Z"/><path id="arm_l" class="cls-8" d="m11.91,180.11c5.51-8.57,16.66-18.86,23-16,7.58,3.42,4.47,23.9,4,27-2.77,18.27-13.42,29.37-18,34-5.1,5.17-10.35,10.47-14,9-6.82-2.75-2.82-27.02-2-32,1.45-8.77,2.55-15.08,7-22Z"/><path id="arm_r" class="cls-8" d="m250.03,180.11c-5.51-8.57-16.66-18.86-23-16-7.58,3.42-4.47,23.9-4,27,2.77,18.27,13.42,29.37,18,34,5.1,5.17,10.35,10.47,14,9,6.82-2.75,2.82-27.02,2-32-1.45-8.77-2.55-15.08-7-22Z"/><g id="pot"><path class="cls-13" d="m29.91,92.11h201c1.76.07,4.07.46,6,2,3.4,2.71,3.1,6.96,3,22-.09,12.87.09,16.92-3,19-1.89,1.27-4.19,1.26-6,.98-3.67,43.67-7.33,87.35-11,131.02-.23,2.09-2.28,18.12-16,26-5.83,3.35-11.55,3.95-15,4h-117.37c-2.69,0-11.64-.36-19.63-7-10.79-8.98-11-22.11-11-24-3.67-43.08-7.33-86.17-11-129.25-2.11.14-4.83-.08-7-1.75-3.15-2.43-3.03-6.3-3-21,.02-13.8-.07-17.52,3-20,2.24-1.8,5.04-2.06,7-2Z"/><path class="cls-11" d="m170.97,132.31l-3.06,134.8s-1.4,24-25.7,30h37.56s18.76,0,18.76,0l13.5-10.93,7.37-15.95,10.09-117.14,1.43-22.98-59.94,2.2Z"/><path class="cls-12" d="m54.91,94.11s-4,3-4,10v28.2h35v-32.43s-.59-5.79,4.21-7.78-35.21,2.01-35.21,2.01Z"/><path class="cls-12" d="m57.19,134.11l11.73,133s1.06,19,21.03,30h23.09s-18.12-11-20.12-34l-3.51-130.8-32.22,1.8Z"/><line class="cls-6" x1="28.91" y1="134.11" x2="233.91" y2="134.11"/><path class="cls-11" d="m23.38,126.6s1.01,4.18,5.04,3.13h148.05v-30.59s0-3.86-3.02-4.9v-3.13l60.43,1.53,5.1,4.56v36.91H20.36l-.45-5.7.45-1.81h3.02Z"/><path class="cls-2" d="m29.91,92.11h201c1.76.07,4.07.46,6,2,3.4,2.71,3.1,6.96,3,22-.09,12.87.09,16.92-3,19-1.89,1.27-4.19,1.26-6,.98-3.67,43.67-7.33,87.35-11,131.02-.23,2.09-2.28,18.12-16,26-5.83,3.35-11.55,3.95-15,4h-117.37c-2.69,0-11.64-.36-19.63-7-10.79-8.98-11-22.11-11-24-3.67-43.08-7.33-86.17-11-129.25-2.11.14-4.83-.08-7-1.75-3.15-2.43-3.03-6.3-3-21,.02-13.8-.07-17.52,3-20,2.24-1.8,5.04-2.06,7-2Z"/></g><g id="plant"><path class="cls-10" d="m121.66,91.55c-2.16-7.16-4.12-16.08-4.75-26.44-.31-5.05-.26-9.74,0-14-2.7.23-10.2.52-18-4-8.58-4.98-12.02-12.58-13-15-.48-1.19-2.66-6.9,0-13,2.51-5.74,8.33-9.6,15-10,2.67-.22,6.55-.21,11,1,7.07,1.92,11.74,5.82,14,8,1.91-2.22,4.86-5.21,9-8,3.38-2.27,9.57-6.45,18-7,2.93-.19,14.84-.97,21,7,8.24,10.66-1.45,27.1-2,28-1.39,2.29-7.19,11.47-19,14-9.94,2.13-17.83-1.82-20-3-.83,4.85-1.41,10.97-1,18,.6,10.29,3.09,18.65,5.35,24.44h-15.6Z"/><path class="cls-4" d="m85.41,19.61c.54,2.29,6.48,1.63,13,3,18.19,3.82,31.17,21.18,30.33,20.11-1.18-1.5-2.46-3.53-3.33-6.11-2.58-7.7,3.52-13.12,2-18-2.3-7.4-17.46-7.82-22-8-5.46-.21-9.14.73-12,2-3.3,1.47-8.54,4.73-8,7Z"/><path class="cls-4" d="m175.41,13.61c-7.65,2.46-17,6.19-27,12-8.57,4.98-15.54,10.27-21,15-.56-1.61-5.18-15.63,3-27,9.04-12.56,28.53-14.66,39-7,2.98,2.18,4.84,4.87,6,7Z"/><path class="cls-1" d="m129.51,14.39s-14.63,24.89,9.88,37.31"/><path class="cls-1" d="m127.47,40.55c-.81,1.58-2.61,4.56-6.06,7.06-3.44,2.5-6.82,3.29-8.57,3.57"/><path class="cls-2" d="m121.66,91.55c-2.16-7.16-4.12-16.08-4.75-26.44-.31-5.05-.26-9.74,0-14-2.7.23-10.2.52-18-4-8.58-4.98-12.02-12.58-13-15-.48-1.19-2.66-6.9,0-13,2.51-5.74,8.33-9.6,15-10,2.67-.22,6.55-.21,11,1,7.07,1.92,11.74,5.82,14,8,1.91-2.22,4.86-5.21,9-8,3.38-2.27,9.57-6.45,18-7,2.93-.19,14.84-.97,21,7,8.24,10.66-1.45,27.1-2,28-1.39,2.29-7.19,11.47-19,14-9.94,2.13-17.83-1.82-20-3-.83,4.85-1.41,10.97-1,18,.6,10.29,3.09,18.65,5.35,24.44h-15.6Z"/></g><g id="ogen"><g id="neutraal"><circle class="cls-9" cx="95.41" cy="175.61" r="16.5"/><circle class="cls-9" cx="164.41" cy="175.61" r="16.5"/><circle class="cls-14" cx="168.91" cy="175.11" r="6"/><circle class="cls-14" cx="99.91" cy="175.11" r="6"/></g><g id="sangry"><path class="cls-9" d="m102.52,161.59c5.38,1.28,11.41,13.23,6.04,22.54-4.56,7.89-14.65,10.6-22.54,6.04-9.19-5.3-10.03-19.39-6.04-22.54,1.34-1.06,2.48-.3,6.08-.53,9.44-.61,12.21-6.52,16.46-5.51Z"/><path class="cls-9" d="m173.9,190.08c-7.89,4.56-17.98,1.85-22.54-6.04-5.28-9.15.49-21.01,6.04-22.54,3.36-.93,5.07,2.36,14.59,4.28,5.31,1.07,6.5.39,7.95,1.76,4.09,3.89,2.97,17.34-6.04,22.54Z"/><circle class="cls-14" cx="168.91" cy="175.11" r="6"/><circle class="cls-14" cx="99.91" cy="175.11" r="6"/></g></g><g id="mond"><g id="fluit"><circle class="cls-5" cx="152.41" cy="228.61" r="11.5"/><circle class="cls-7" cx="152.41" cy="228.61" r="6.5"/></g><g id="sip"><path class="cls-7" d="m158.91,239.61c-.33.86-10.35-4.9-26-5.5-18.84-.73-31.6,6.55-32,5.5-.41-1.09,12.46-10.55,29-10.5,16.46.05,29.39,9.5,29,10.5Z"/></g><g id="dorst"><path class="cls-7" d="m97.91,231.22c.29,1.48,10.98-1.37,27-.1,21.26,1.68,35.19,9.31,37,6,.92-1.69-2.03-4.93-3-6-10.78-11.85-32.42-8.26-40-7-10.74,1.78-21.29,5.62-21,7.1Z"/><path class="cls-3" d="m143.73,242.01c4.71,8.2,1.32,12.91,6.12,17.81,4.09,4.18,11.63,5.92,14.92,3.16,4.56-3.83-.01-15.5-3.08-20.92-4.13-7.3-11.52-13.9-16.86-13.42-.82.07-2.31.38-5.16.56-4.48.29-5.68-.14-6.06.5-.94,1.58,5.89,4.96,10.11,12.3Z"/></g><g id="blij"><path class="cls-9" d="m166.91,223.11c2.66,3.33-12.46,30.24-35,31-23.62.8-40.58-27.62-38-31,2.06-2.7,15.72,11.56,38,11,20.84-.52,32.91-13.61,35-11Z"/></g><g id="neutraal-2"><rect class="cls-9" x="96.91" y="231.11" width="65" height="7" rx="3.5" ry="3.5"/></g><g id="Laag_14"><rect class="cls-9" x="115.05" y="205.43" width="25" height="58" rx="12" ry="12" transform="translate(152.07 500.19) rotate(-156.72)"/><path class="cls-5" d="m113.67,266.7s12.83,7.35,22.28-7.53l14.38-33.44s7.21-14.67-9.09-23.14"/><path class="cls-5" d="m114.13,266.89s-13.77-4.09-9.39-21.15l14.38-33.44s5.72-15.31,22.59-9.51"/></g></g></g></svg>