<?xml version="1.0" encoding="UTF-8"?><svg id="Laag_2" xmlns="http://www.w3.org/2000/svg" xmlns:xlink="http://www.w3.org/1999/xlink" viewBox="0 0 355.25 410.05"><defs><style>.cls-1{stroke-width:3px;}.cls-1,.cls-2,.cls-3,.cls-4,.cls-5,.cls-6,.cls-7,.cls-8,.cls-9,.cls-10,.cls-11,.cls-12,.cls-13,.cls-14,.cls-15,.cls-16,.cls-17{stroke-miterlimit:10;}.cls-1,.cls-2,.cls-3,.cls-4,.cls-6,.cls-7,.cls-8,.cls-9,.cls-10,.cls-11,.cls-12,.cls-13,.cls-15,.cls-16,.cls-17{stroke:#000;}.cls-1,.cls-2,.cls-13,.cls-14,.cls-15{fill:none;}.cls-2,.cls-17{stroke-width:6px;}.cls-18{clip-path:url(#clippath);}.cls-3{fill:#edd7e4;}.cls-3,.cls-4,.cls-7,.cls-8,.cls-13,.cls-16{stroke-width:2px;}.cls-4{fill:#ff7bac;}.cls-5{fill:#b47049;stroke:#e54e4e;}.cls-5,.cls-6,.cls-9,.cls-10,.cls-14,.cls-15{stroke-width:4px;}.cls-6{fill:#0071bc;}.cls-7{fill:#bf3533;}.cls-8{fill:#5677c4;}.cls-9{fill:#29abe2;}.cls-10{fill:#de976d;}.cls-11{fill:#cbc04a;}.cls-12{fill:#a9db54;}.cls-14{stroke:#823a37;}.cls-19,.cls-20,.cls-21,.cls-22,.cls-23,.cls-24{stroke-width:0px;}.cls-17,.cls-23{fill:#c17052;}.cls-20{fill:#75a833;}.cls-21{fill:#ac5346;}.cls-22{fill:#db9364;}.cls-24{fill:#fff;}</style><clipPath id="clippath"><path class="cls-15" d="m115.42,81.8C124.46,34.54,152.97,1.89,178.71,2c31.86.14,54.36,52.67,64.98,77.39,8.58,19.97,12.69,37.87,14.83,50.78.9,3.66,1.52,9.01-1.14,13.61-2.78,4.8-8.36,9.36-25.2,9.36-34.11,0-54.35-.46-54.35-.46l-72.82-17.19s.32-29.51,10.41-53.69Z"/></clipPath></defs><g id="harry"><path id="been_l" class="cls-17" d="m132.65,319.05l8.36,34.18c1.25,5.24,5.73,8.47,10,7.72,3.41-.6,6.26-3.67,7.12-7.72,1.58-11.39,3.16-22.78,4.74-34.18h-30.22Z"/><path id="been_r" class="cls-17" d="m232.88,319.05l-8.36,34.18c-1.25,5.24-5.73,8.47-10,7.72-3.41-.6-6.26-3.67-7.12-7.72-1.58-11.39-3.16-22.78-4.74-34.18h30.22Z"/><path id="arm_l" class="cls-17" d="m88.04,204.75c10.04,1.72,23.87,7.96,23.71,14.92-.19,8.31-20.26,13.45-23.29,14.23-17.9,4.59-32.28-.88-38.33-3.28-6.75-2.68-13.68-5.43-13.75-9.37-.13-7.35,23.77-13.15,28.67-14.34,8.64-2.1,14.88-3.54,22.99-2.15Z"/><path id="arm_r" class="cls-17" d="m279.86,204.77c-10.01,1.9-23.73,8.38-23.45,15.33.33,8.31,20.49,13.1,23.54,13.82,17.98,4.27,32.26-1.44,38.27-3.95,6.7-2.8,13.59-5.67,13.59-9.61,0-7.36-23.99-12.74-28.92-13.84-8.68-1.95-14.94-3.28-23.02-1.75Z"/><g id="pot"><path class="cls-23" d="m83.02,114.05h201c1.76.07,4.07.46,6,2,3.4,2.71,3.1,6.96,3,22-.09,12.87.09,16.92-3,19-1.89,1.27-4.19,1.26-6,.98-3.67,43.67-7.33,87.35-11,131.02-.23,2.09-2.28,18.12-16,26-5.83,3.35-11.55,3.95-15,4h-117.37c-2.69,0-11.64-.36-19.63-7-10.79-8.98-11-22.11-11-24-3.67-43.08-7.33-86.17-11-129.25-2.11.14-4.83-.08-7-1.75-3.15-2.43-3.03-6.3-3-21,.02-13.8-.07-17.52,3-20,2.24-1.8,5.04-2.06,7-2Z"/><path class="cls-21" d="m224.08,154.25l-3.06,134.8s-1.4,24-25.7,30h37.56s18.76,0,18.76,0l13.5-10.93,7.37-15.95,10.09-117.14,1.43-22.98-59.94,2.2Z"/><path class="cls-22" d="m108.02,116.05s-4,3-4,10v28.2h35v-32.43s-.59-5.79,4.21-7.78-35.21,2.01-35.21,2.01Z"/><path class="cls-22" d="m110.29,156.05l11.73,133s1.06,19,21.03,30h23.09s-18.12-11-20.12-34l-3.51-130.8-32.22,1.8Z"/><line class="cls-14" x1="82.02" y1="156.05" x2="287.02" y2="156.05"/><path class="cls-21" d="m76.48,148.54s1.01,4.18,5.04,3.13h148.05v-30.59s0-3.86-3.02-4.9v-3.13l60.43,1.53,5.1,4.56v36.91H73.46l-.45-5.7.45-1.81h3.02Z"/><path class="cls-2" d="m83.02,114.05h201c1.76.07,4.07.46,6,2,3.4,2.71,3.1,6.96,3,22-.09,12.87.09,16.92-3,19-1.89,1.27-4.19,1.26-6,.98-3.67,43.67-7.33,87.35-11,131.02-.23,2.09-2.28,18.12-16,26-5.83,3.35-11.55,3.95-15,4h-117.37c-2.69,0-11.64-.36-19.63-7-10.79-8.98-11-22.11-11-24-3.67-43.08-7.33-86.17-11-129.25-2.11.14-4.83-.08-7-1.75-3.15-2.43-3.03-6.3-3-21,.02-13.8-.07-17.52,3-20,2.24-1.8,5.04-2.06,7-2Z"/></g><g id="sombrero"><path class="cls-5" d="m241.26,67.64s93.43-6.39,109.4,22.63c0,0,8.71,22.97-5.8,31.44,0,0-94.3,84.64-340.93-22.97,0,0-14.44-17.87,71.36-16.19,0,0,41.81,7.2,165.97-14.9Z"/><g class="cls-18"><path class="cls-10" d="m115.92,81.8C124.95,34.54,153.47,1.89,179.21,2c31.86.14,54.36,52.67,64.98,77.39,8.58,19.97,12.69,37.87,14.83,50.78.9,3.66,1.52,9.01-1.14,13.61-2.78,4.8-8.36,9.36-25.2,9.36-34.11,0-54.35-.46-54.35-.46l-72.82-17.19s.32-29.51,10.41-53.69Z"/><path class="cls-7" d="m108.07,109s39.7,30.84,142.48,5.45,0,43.53,0,43.53l-148.73-7.25,6.25-41.72Z"/><path class="cls-3" d="m104.21,84.22l-1.55,29.77s62.36,53.1,152.72,2.94l-1.94-28.35s-64.17,41.43-149.23-4.36Z"/><path class="cls-8" d="m115.6,77.57s44.26,18.8,130.11,4.26c85.85-14.54,3.02,16.9,3.02,16.9l-99.77,4.4-42.17-12.56s-8.33-8.77,0-11.18,8.81-1.81,8.81-1.81Z"/><path class="cls-7" d="m110.14,80.59l-1.19,15.72s70.26,33.86,139.78,2.42c69.53-31.44-3.02-8.16-3.02-8.16,0,0-86.15,23.88-135.57-9.98Z"/></g><path class="cls-15" d="m115.42,81.8C124.46,34.54,152.97,1.89,178.71,2c31.86.14,54.36,52.67,64.98,77.39,8.58,19.97,12.69,37.87,14.83,50.78.9,3.66,1.52,9.01-1.14,13.61-2.78,4.8-8.36,9.36-25.2,9.36-34.11,0-54.35-.46-54.35-.46l-72.82-17.19s.32-29.51,10.41-53.69Z"/><path class="cls-10" d="m2.02,96.05s220.26,108.84,347,23.77c0,0-22.45,62.61-172.42,55.7-34.63.89-61.61-5.02-78.98-10.18-8.88-2.64-94.18-27.97-95.6-67.29-.03-.85-.02-1.55,0-2Z"/><g id="Laag_17"><polygon class="cls-11" points="239.67 72.13 245.71 81.83 257.8 70.92 239.67 72.13"/><polygon class="cls-11" points="261.1 70.92 267.48 84.22 281.61 70.92 261.1 70.92"/><polygon class="cls-11" points="284.62 70.92 291.66 87.85 303.75 73.34 284.62 70.92"/><polygon class="cls-11" points="309.8 74.55 311.01 89.06 326.72 80.59 309.8 74.55"/><polygon class="cls-11" points="330.35 80.59 329.14 96.31 342.17 88.45 330.35 80.59"/><polygon class="cls-11" points="344.86 89.49 349.36 96.31 344.86 103.13 344.86 89.49"/><polygon class="cls-11" points="14.76 92.69 24.44 99.94 23.23 89.06 14.76 92.69"/><polygon class="cls-11" points="29.75 89.06 37.74 101.15 42.46 89.06 29.75 89.06"/><polygon class="cls-11" points="48.62 86.64 57.08 97.52 64.2 86.64 48.62 86.64"/><polygon class="cls-11" points="71.43 86.64 81.89 94.5 88.52 86.64 71.43 86.64"/><polygon class="cls-11" points="96.99 85.43 106.79 90.57 114.02 85.43 96.99 85.43"/></g></g><g id="sjaal"><path class="cls-9" d="m86.69,226.65s90.32,26.4,193.32,4.4c0,0,4,11.14,4,15.07,0,0-219.65,57.13-197.32-19.47Z"/><path class="cls-6" d="m142.58,285.42s6.44,27.63-20.56,57.63c0,0-32,33-32,56,0,0,0,9-11,9,0,0-47-3-41-29,0,0,3.42-33.04,33.71-57.02,0,0,26.88-27.4,22.58-47.69l48.27,11.08Z"/><path class="cls-6" d="m296.02,286.05s2.11-14.75-3.95-41.37c0,0-95.43,8.57-205.74-18.03,0,0-11.31,32.4-10.31,42.4,0,0-3,3,26,10,0,0,127,29,194,7Z"/><path class="cls-9" d="m145.45,237.81c-14.66-2.13-29.95-4.82-45.63-8.19-4.23,5.39-13.5,19.47-17.89,43.7,3.88,1.4,9.67,3.13,18.32,5.22,0,0,15.87,3.62,39.34,7.33-1.55-7.82-2.8-24.3,5.85-48.06Z"/><path class="cls-9" d="m242.02,246.05c-8.97-.36-18.07-.79-27.29-1.31-10.68-.6-21.2-1.3-31.53-2.09.21,14.45,1.23,32.09,4.15,49.49,8.31.89,17.22,1.57,26.67,1.91,9.55.34,18.57.3,27,0-.46-8.14-.64-16.94-.38-26.32.22-7.65.71-14.89,1.38-21.68Z"/><path class="cls-9" d="m46.8,352.49c-7.78,14.94-9.05,27.13-9.05,27.13-.66,2.84-.68,5.41-.2,7.73,4.83,3.77,21.37,14.18,52.28,10.22.61-7.87,4.58-16.71,9.53-24.93-10.65-2.8-34.25-9.7-52.56-20.16Z"/><path class="cls-9" d="m115.88,350.14c3.47-4.05,5.87-6.52,5.87-6.52,8.37-9.3,13.53-18.38,16.66-26.47-11.8-3.57-33.64-10.72-49.27-18.91-6.81,13.28-17.67,24.37-17.67,24.37-2.86,2.27-5.48,4.61-7.89,7.01,5.67,5.09,21.34,16.36,52.31,20.54Z"/></g><g id="plant"><path class="cls-20" d="m174.77,113.49c-2.16-7.16-4.12-16.08-4.75-26.44-.31-5.05-.26-9.74,0-14-2.7.23-10.2.52-18-4-8.58-4.98-12.02-12.58-13-15-.48-1.19-2.66-6.9,0-13,2.51-5.74,8.33-9.6,15-10,2.67-.22,6.55-.21,11,1,7.07,1.92,11.74,5.82,14,8,1.91-2.22,4.86-5.21,9-8,3.38-2.27,9.57-6.45,18-7,2.93-.19,14.84-.97,21,7,8.24,10.66-1.45,27.1-2,28-1.39,2.29-7.19,11.47-19,14-9.94,2.13-17.83-1.82-20-3-.83,4.85-1.41,10.97-1,18,.6,10.29,3.09,18.65,5.35,24.44h-15.6Z"/><path class="cls-12" d="m138.52,41.55c.54,2.29,6.48,1.63,13,3,18.19,3.82,31.17,21.18,30.33,20.11-1.18-1.5-2.46-3.53-3.33-6.11-2.58-7.7,3.52-13.12,2-18-2.3-7.4-17.46-7.82-22-8-5.46-.21-9.14.73-12,2-3.3,1.47-8.54,4.73-8,7Z"/><path class="cls-12" d="m228.52,35.55c-7.65,2.46-17,6.19-27,12-8.57,4.98-15.54,10.27-21,15-.56-1.61-5.18-15.63,3-27,9.04-12.56,28.53-14.66,39-7,2.98,2.18,4.84,4.87,6,7Z"/><path class="cls-1" d="m182.62,36.33s-14.63,24.89,9.88,37.31"/><path class="cls-1" d="m180.58,62.49c-.81,1.58-2.61,4.56-6.06,7.06-3.44,2.5-6.82,3.29-8.57,3.57"/><path class="cls-2" d="m174.77,113.49c-2.16-7.16-4.12-16.08-4.75-26.44-.31-5.05-.26-9.74,0-14-2.7.23-10.2.52-18-4-8.58-4.98-12.02-12.58-13-15-.48-1.19-2.66-6.9,0-13,2.51-5.74,8.33-9.6,15-10,2.67-.22,6.55-.21,11,1,7.07,1.92,11.74,5.82,14,8,1.91-2.22,4.86-5.21,9-8,3.38-2.27,9.57-6.45,18-7,2.93-.19,14.84-.97,21,7,8.24,10.66-1.45,27.1-2,28-1.39,2.29-7.19,11.47-19,14-9.94,2.13-17.83-1.82-20-3-.83,4.85-1.41,10.97-1,18,.6,10.29,3.09,18.65,5.35,24.44h-15.6Z"/></g><g id="ogen"><g id="neutraal"><circle class="cls-19" cx="148.52" cy="197.55" r="16.5"/><circle class="cls-19" cx="217.52" cy="197.55" r="16.5"/><circle class="cls-24" cx="222.02" cy="197.05" r="6"/><circle class="cls-24" cx="153.02" cy="197.05" r="6"/></g><g id="sangry"><path class="cls-19" d="m155.62,183.53c5.38,1.28,11.41,13.23,6.04,22.54-4.56,7.89-14.65,10.6-22.54,6.04-9.19-5.3-10.03-19.39-6.04-22.54,1.34-1.06,2.48-.3,6.08-.53,9.44-.61,12.21-6.52,16.46-5.51Z"/><path class="cls-19" d="m227.01,212.02c-7.89,4.56-17.98,1.85-22.54-6.04-5.28-9.15.49-21.01,6.04-22.54,3.36-.93,5.07,2.36,14.59,4.28,5.31,1.07,6.5.39,7.95,1.76,4.09,3.89,2.97,17.34-6.04,22.54Z"/><circle class="cls-24" cx="222.02" cy="197.05" r="6"/><circle class="cls-24" cx="153.02" cy="197.05" r="6"/></g><g id="bril"><path class="cls-19" d="m113.7,178.33s32.32-10.28,55.32-.28c0,0,5,2,8,1,0,0,8-2,15,0,0,0,3,1,8-1,0,0,21-10,53,0,0,0,1,1.45,0,5.22,0,0-3,1.78-4,12.78,0,0-2,22-16,24,0,0-26,7-34-8-1.26-1.85-2.53-3.93-3.75-6.25-2.63-5.03-4.24-9.77-5.25-13.75-.52-1.86-.32-3.14,0-4,.21-.57.45-.9.42-1.42-.06-1.13-1.3-2-2.42-2.58,0,0-3-1-6,0,0,0-5,1-3,5,0,0,1,1,0,4-.65,2.35-1.51,4.91-2.62,7.62-1.68,4.07-3.57,7.53-5.38,10.38-1.71,2.65-4.37,5.86-8.38,8.38-13.16,8.26-28.81,1.45-30.62.62,0,0-10.9-2-12.95-23,0,0-1.05-7-2.05-9,0,0-.21-3.28-2.6-4.64,0,0-1.04-2.8-.72-5.08Z"/></g></g><g id="mond"><g id="fluit"><circle class="cls-13" cx="205.52" cy="250.55" r="11.5"/><circle class="cls-16" cx="205.52" cy="250.55" r="6.5"/></g><g id="sip"><path class="cls-16" d="m212.02,261.55c-.33.86-10.35-4.9-26-5.5-18.84-.73-31.6,6.55-32,5.5-.41-1.09,12.46-10.55,29-10.5,16.46.05,29.39,9.5,29,10.5Z"/></g><g id="dorst"><path class="cls-16" d="m151.02,253.16c.29,1.48,10.98-1.37,27-.1,21.26,1.68,35.19,9.31,37,6,.92-1.69-2.03-4.93-3-6-10.78-11.85-32.42-8.26-40-7-10.74,1.78-21.29,5.62-21,7.1Z"/><path class="cls-4" d="m196.83,263.96c4.71,8.2,1.32,12.91,6.12,17.81,4.09,4.18,11.63,5.92,14.92,3.16,4.56-3.83-.01-15.5-3.08-20.92-4.13-7.3-11.52-13.9-16.86-13.42-.82.07-2.31.38-5.16.56-4.48.29-5.68-.14-6.06.5-.94,1.58,5.89,4.96,10.11,12.3Z"/></g><g id="blij"><path class="cls-19" d="m220.02,245.05c2.66,3.33-12.46,30.24-35,31-23.62.8-40.58-27.62-38-31,2.06-2.7,15.72,11.56,38,11,20.84-.52,32.91-13.61,35-11Z"/></g><g id="neutraal-2"><rect class="cls-19" x="150.02" y="253.05" width="65" height="7" rx="3.5" ry="3.5"/></g><g id="gek"><rect class="cls-19" x="168.15" y="227.38" width="25" height="58" rx="12" ry="12" transform="translate(245.29 563.27) rotate(-156.72)"/><path class="cls-13" d="m166.77,288.64s12.83,7.35,22.28-7.53l14.38-33.44s7.21-14.67-9.09-23.14"/><path class="cls-13" d="m167.23,288.83s-13.77-4.09-9.39-21.15l14.38-33.44s5.72-15.31,22.59-9.51"/></g></g><g id="billlen"><g id="bil_l"><circle class="cls-23" cx="137.93" cy="300.47" r="32.91"/><path class="cls-22" d="m109.02,316.05c-.22-2.72-1.38-21.11,12.66-35.02,10.39-10.3,22.88-11.96,26.71-12.32-2.12-.6-16.74-4.49-29.09,4.39-8.18,5.88-11.02,14.01-11.9,16.66-4.19,12.69.39,23.58,1.62,26.29Z"/><path class="cls-21" d="m169.27,293.84c-1.77,5.02-5.63,13.79-13.92,21.88-11.57,11.31-24.76,14.45-30.11,15.41,2.57,1.19,7.34,3,13.48,2.93,10.06-.12,17.06-5.17,19.41-7.04,2.34-1.97,7.98-7.25,10.62-16.17,2.24-7.58,1.2-14,.51-17.01Z"/><path class="cls-15" d="m162.24,322.63c-13.18,13.77-35.04,13.8-47.65,1.19-13.2-13.21-12.4-36.4,2.95-49.18"/></g><g id="bil_r"><circle class="cls-23" cx="187.1" cy="299.68" r="32.91"/><path class="cls-22" d="m170.53,327.01c-7.35-13.47-5.92-29.88,3.49-41.21,12.7-15.3,32.7-12.64,33.75-12.48-.73-.56-15.64-11.71-32.97-4.89-1.01.4-17.09,7.05-20.3,24.03-2.49,13.21,3.87,27.03,16.02,34.55Z"/><path class="cls-21" d="m208.12,325.45c-2.38.79-18.02,5.71-33.6-3.41-13.98-8.17-17.99-21.84-18.75-24.62-.29,3.32-.44,9.26,1.68,15.73,3.48,10.58,10.7,15.47,13.29,17.03,1.71.96,5.17,2.66,9.92,3.33.84.12,4.38.59,9.25-.16,8.19-1.27,14.5-5.13,18.21-7.9Z"/><path class="cls-15" d="m216.89,314.93c-10.07,16.83-31.69,21.97-47.01,12.78-16.41-9.85-21.43-33.68-8.73-50.5"/></g></g></g></svg>