<svg xmlns="http://www.w3.org/2000/svg" width="869.171" height="723.582" viewBox="0 0 869.171 723.582">
  <g id="herfst-blad-2" transform="translate(-473.163 -131)">
    <path id="takje" d="M586.127,724.656l11.282-60.817-6-166.8,130.333,62.13L780.6,278.418l93.429,188.259,156.026-246.185,20.554,127.063,193.865-112.582L1128.153,513.858l-199,62.13s60.729,95.3,57.459,95.3S746.5,687.169,746.5,687.169l-45.313,94.363L597.408,764.72l-86.984,79.018-37.261-37.261Z" fill="#9a1b1b"/>
    <g id="herfst-blad" transform="translate(476.5 130.57)">
      <path id="Path_4" data-name="Path 4" d="M38.2,601.721s30.629,18.078,59.691,0,85.47-61.68,85.47-61.68L136.674,401.3l64.61,125.805,124.3-89.7L305.645,202.427l45.837,216.292L528.172,291.21,549.9,121.618l-7.264,159.156L748.93,131.9c-35.084,29.237-76.229,62.409-120.756,97.788l81.588,6.856-99.775,7.569c-38.1,30.172-78.332,61.734-119.105,93.666L616.2,354.415l-135.381-8.756q-10.613,8.31-21.255,16.64c-46.8,36.635-93.779,73.412-138.572,108.8l156.615,40.856-172.99-27.9c-49.662,39.338-96.2,76.7-136.264,109.909l59.535,22.665-72.521-11.855c-35.506,29.69-65.22,55.673-86.534,76.267,59.675-7.577,187.562-12.071,240.616,28.742,53.767,41.361,22.4-17.231,0-51.7-21.541-43.081-32.053-116.318,98.229-64.621s158.016,52.455,155.6,46.371c-7.339-13.209-15.631-36.765,9.907-25.317,30.239,13.555,123.7,24.148,164.343,25.227a1.938,1.938,0,0,0,1.145-3.543c-32.521-23.153-84.843-62.69-90.176-75.342-.122-.287-.251-.629-.392-1-.609-1.608-1.425-3.76-2.644-4.346-34.891-16.767-100.1-49.181-108.6-57.679-1.22-1.219-3.021-2.723-5.1-4.457-16.675-13.923-51.2-42.749,53.533-59.388,16.817-2.672,31.592-5.075,44.633-7.2,64.369-10.467,86.476-14.062,103.316-9.24,2.154.617,12.873-3.417,14.8-4.568,6.96-4.166,21.864-8.7,50.8-12.022,49.423-5.672,64.743-19.852,66.876-27.8a1.606,1.606,0,0,0-1.643-1.969c-45.913-1.258-140.918-8.6-168.705-28.577-35.225-25.317,46.233-82.557,74.852-91.363,4.833-1.487,9.414-2.849,13.787-4.148,19.6-5.824,35.007-10.4,50.04-19.463a1.957,1.957,0,0,0-.744-3.6c-16.669-2.76-44.158-8.9-52.075-16.816-11.008-11.008-22.017-36.324,17.612-60.541,17.217-10.521,30.884-18.272,40.72-23.571,2.108-1.135.506-6.542-1.888-6.613-15.611-.469-27.2-7.368-6.909-31.459,25.781-30.615,33.872-65.405,35.063-82.625a1.872,1.872,0,0,0-3.14-1.5L781.418,70.579a1.93,1.93,0,0,1-.4.268c-17.848,8.867-48.557,17.066-39.723-14.7.555-1.995-1.9-3.73-3.483-2.4l-88.671,74.235c-25.317,24.584-75.953,54.819-75.953-20.914,0-49.427,3.438-78.724,6.949-94.439.511-2.289-.529-2.644-1.541-.528L536.859,99.359c-4.621,8.913-14.466,22.279-20.244,12.055-.867-1.534-3.213-1.8-4.08-.263l-79.148,140.11c-13.21,21.65-44.472,49.98-63.845-9.9-22.91-70.811-76.357-182.01-99.769-201.269-1.333-1.1-2.827.2-2.28,1.84,8.371,25.081,19.41,63.487,11.649,60.9-1.773-.591-4.153.167-4.123,2.036.475,30.561-3.915,79.3-25.462,66.043-16.213-9.977-26.391-16.864-31.864-20.817a2.235,2.235,0,0,0-3.47,2.123c10.149,56.741,28.232,163.079,26.528,175-.292,2.046-.371,5.78-.471,10.509-.652,30.89-2.2,104.241-69.978,26.918-43.993-50.19-60.774-73.893-65.451-83.535,1.256,14.417.674,31.889-9.4,16.387-3.054-4.7-7.011-10.15-11.336-16.108-14.156-19.5-32.25-44.434-35.509-66.142.016,15.933-.167,43.723-.313,65.994-.1,14.48-.175,26.627-.175,31.667,0,2.994.141,6.185.283,9.4.746,16.892,1.523,34.5-17.9,28.024a63.605,63.605,0,0,1-10.794-4.723c-2.163-1.2-6.284,2.351-5.011,4.474,33.19,55.356,80.751,140.23,80.751,163.164,0,5.275.178,9.819.33,13.714.8,20.491.9,23.009-29.316,19.309C30.5,541.87,6.286,533.064.782,523.157c-.43-.774-.356-.635.137.291C3.968,529.181,23.06,565.078,38.2,601.721Z" fill="#fff"/>
      <path id="Path_5" data-name="Path 5" d="M48.116,207.229a43.263,43.263,0,0,0,.488,8.019C48.592,203.08,48.464,197.827,48.116,207.229Z" fill="#fff"/>
      <path id="Path_6" data-name="Path 6" d="M104.851,281.111a12.732,12.732,0,0,1-1.488-4.386c-.043-1.007.987-.495,1.1.507C104.6,278.48,104.735,279.783,104.851,281.111Z" fill="#fff"/>
    </g>
  </g>
</svg>
