<svg width="866" height="725" viewBox="0 0 866 725" fill="none" xmlns="http://www.w3.org/2000/svg">
<path d="M38.2033 601.721C38.2033 601.721 68.8327 619.799 97.894 601.721C126.955 583.643 183.364 540.041 183.364 540.041L136.674 401.304L201.284 527.109L325.583 437.409L305.645 202.427L351.482 418.719L528.172 291.21L549.897 121.618L542.633 280.774L748.93 131.9C713.846 161.137 672.701 194.309 628.174 229.688L709.762 236.544L609.987 244.113C571.885 274.285 531.655 305.847 490.882 337.779L616.2 354.415L480.819 345.659C473.744 351.199 466.656 356.748 459.564 362.299C412.765 398.934 365.785 435.711 320.992 471.102L477.607 511.958L304.617 484.057C254.955 523.395 208.416 560.752 168.353 593.966L227.888 616.631L155.367 604.776C119.861 634.466 90.1469 660.449 68.8327 681.043C128.508 673.466 256.395 668.972 309.449 709.785C363.216 751.146 331.852 692.554 309.449 658.088C287.908 615.007 277.396 541.77 407.678 593.467C537.96 645.164 565.694 645.922 563.277 639.838C555.938 626.629 547.646 603.073 573.184 614.521C603.423 628.076 696.879 638.669 737.527 639.748C739.479 639.8 740.263 637.337 738.672 636.205C706.151 613.052 653.829 573.515 648.496 560.863C648.374 560.576 648.245 560.234 648.104 559.863C647.495 558.255 646.679 556.103 645.46 555.517C610.569 538.75 545.356 506.336 536.859 497.838C535.639 496.619 533.838 495.115 531.76 493.381C515.085 479.458 480.56 450.632 585.293 433.993C602.11 431.321 616.885 428.918 629.926 426.797C694.295 416.33 716.402 412.735 733.242 417.557C735.396 418.174 746.115 414.14 748.038 412.989C754.998 408.823 769.902 404.288 798.843 400.967C848.266 395.295 863.586 381.115 865.719 373.17C866.001 372.122 865.161 371.23 864.076 371.201C818.163 369.943 723.158 362.597 695.371 342.624C660.146 317.307 741.604 260.067 770.223 251.261C775.056 249.774 779.637 248.412 784.01 247.113C803.61 241.289 819.017 236.711 834.05 227.65C835.622 226.702 835.117 224.345 833.306 224.045C816.637 221.285 789.148 215.145 781.231 207.229C770.223 196.221 759.214 170.905 798.843 146.688C816.06 136.167 829.727 128.416 839.563 123.117C841.671 121.982 840.069 116.575 837.675 116.504C822.064 116.035 810.479 109.136 830.766 85.0448C856.547 54.4294 864.638 19.6394 865.829 2.41994C865.947 0.715307 863.986 -0.194161 862.689 0.917849L781.418 70.5787C781.294 70.6852 781.161 70.7743 781.014 70.8471C763.166 79.7136 732.457 87.9128 741.291 56.1448C741.846 54.15 739.395 52.4144 737.808 53.7435L649.137 127.979C623.82 152.563 573.184 182.798 573.184 107.065C573.184 57.6379 576.622 28.3411 580.133 12.6259C580.644 10.3371 579.604 9.98218 578.592 12.0979L536.859 99.3591C532.238 108.272 522.393 121.638 516.615 111.414C515.748 109.88 513.402 109.617 512.535 111.151L433.387 251.261C420.177 272.911 388.915 301.241 369.542 241.359C346.632 170.548 293.185 59.349 269.773 40.0904C268.44 38.9932 266.946 40.2921 267.493 41.9304C275.864 67.0114 286.903 105.417 279.142 102.83C277.369 102.239 274.989 102.997 275.019 104.866C275.494 135.427 271.104 184.169 249.557 170.909C233.344 160.932 223.166 154.045 217.693 150.092C216.168 148.99 213.892 150.363 214.223 152.215C224.372 208.956 242.455 315.294 240.751 327.219C240.459 329.265 240.38 332.999 240.28 337.728C239.628 368.618 238.079 441.969 170.302 364.646C126.309 314.456 109.528 290.753 104.851 281.111C106.107 295.528 105.525 313 95.449 297.498C92.3947 292.799 88.4377 287.348 84.1133 281.39C69.957 261.886 51.8628 236.956 48.604 215.248C48.6198 231.181 48.4372 258.971 48.2908 281.242C48.1956 295.722 48.1157 307.869 48.1157 312.909C48.1157 315.903 48.2566 319.094 48.3986 322.311C49.1442 339.203 49.9216 356.813 30.5033 350.335C26.4625 348.988 22.8737 347.37 19.7093 345.612C17.5458 344.41 13.4254 347.963 14.6981 350.086C47.8881 405.442 95.449 490.316 95.449 513.25C95.449 518.525 95.6269 523.069 95.7794 526.964C96.5818 547.455 96.6804 549.973 66.4636 546.273C30.5033 541.87 6.28632 533.064 0.782471 523.157C0.352661 522.383 0.426331 522.522 0.919067 523.448C3.9679 529.181 23.0601 565.078 38.2033 601.721Z" fill="white"/>
<path d="M48.1157 207.229C48.019 209.839 48.1942 212.518 48.604 215.248C48.5919 203.08 48.464 197.827 48.1157 207.229Z" fill="white"/>
<path d="M104.851 281.111C103.848 279.043 103.402 277.622 103.363 276.725C103.32 275.718 104.35 276.23 104.463 277.232C104.604 278.48 104.735 279.783 104.851 281.111Z" fill="white"/>
</svg>
