<svg width="866" height="725" viewBox="0 0 866 725" fill="none" xmlns="http://www.w3.org/2000/svg">
<path d="M828.131 601.721C828.131 601.721 797.501 619.799 768.44 601.721C739.379 583.643 682.97 540.041 682.97 540.041L729.66 401.304L665.05 527.109L540.751 437.409L560.689 202.427L514.852 418.719L338.162 291.21L316.437 121.618L323.701 280.774L117.404 131.9C152.488 161.137 193.633 194.309 238.16 229.688L156.572 236.544L256.347 244.113C294.449 274.285 334.679 305.847 375.452 337.779L250.134 354.415L385.515 345.659C392.59 351.199 399.678 356.748 406.77 362.299C453.569 398.934 500.549 435.711 545.342 471.102L388.727 511.958L561.717 484.057C611.379 523.395 657.918 560.752 697.981 593.966L638.446 616.631L710.967 604.776C746.473 634.466 776.187 660.449 797.501 681.043C737.826 673.466 609.939 668.972 556.885 709.785C503.118 751.146 534.482 692.554 556.885 658.088C578.426 615.007 588.938 541.77 458.656 593.467C328.374 645.164 300.64 645.922 303.057 639.838C310.396 626.629 318.688 603.073 293.15 614.521C262.911 628.076 169.455 638.669 128.806 639.748C126.855 639.8 126.071 637.337 127.662 636.205C160.183 613.052 212.505 573.515 217.838 560.863C217.959 560.576 218.089 560.234 218.23 559.863C218.839 558.255 219.655 556.103 220.874 555.517C255.765 538.75 320.978 506.336 329.475 497.838C330.695 496.619 332.496 495.115 334.573 493.381C351.249 479.458 385.774 450.632 281.041 433.993C264.224 431.321 249.449 428.918 236.408 426.797C172.039 416.33 149.932 412.735 133.092 417.557C130.938 418.174 120.219 414.14 118.296 412.989C111.336 408.823 96.4321 404.288 67.4913 400.967C18.0676 395.295 2.74812 381.115 0.614523 373.17C0.332978 372.122 1.17275 371.23 2.25791 371.201C48.1706 369.943 143.176 362.597 170.963 342.624C206.188 317.307 124.73 260.067 96.1107 251.261C91.2781 249.774 86.6965 248.412 82.3237 247.113C62.7244 241.289 47.3167 236.711 32.2842 227.65C30.712 226.702 31.2169 224.345 33.0279 224.045C49.697 221.285 77.1861 215.145 85.1029 207.229C96.1107 196.221 107.12 170.905 67.4913 146.688C50.2741 136.167 36.6067 128.416 26.771 123.117C24.6631 121.982 26.2654 116.575 28.6586 116.504C44.2698 116.035 55.8554 109.136 35.5681 85.0448C9.78667 54.4294 1.69559 19.6394 0.505077 2.41994C0.387222 0.715307 2.34753 -0.194161 3.64487 0.917849L84.916 70.5787C85.0402 70.6852 85.1734 70.7743 85.3199 70.8471C103.168 79.7136 133.877 87.9128 125.043 56.1448C124.488 54.15 126.939 52.4144 128.526 53.7435L217.197 127.979C242.514 152.563 293.15 182.798 293.15 107.065C293.15 57.6379 289.712 28.3411 286.201 12.6259C285.69 10.3371 286.73 9.98218 287.742 12.0979L329.475 99.3591C334.096 108.272 343.941 121.638 349.719 111.414C350.586 109.88 352.932 109.617 353.799 111.151L432.947 251.261C446.157 272.911 477.419 301.241 496.792 241.359C519.702 170.548 573.149 59.349 596.561 40.0904C597.894 38.9932 599.388 40.2921 598.841 41.9304C590.47 67.0114 579.431 105.417 587.192 102.83C588.965 102.239 591.345 102.997 591.315 104.866C590.84 135.427 595.23 184.169 616.777 170.909C632.99 160.932 643.168 154.045 648.641 150.092C650.166 148.99 652.442 150.363 652.111 152.215C641.962 208.956 623.879 315.294 625.583 327.219C625.875 329.265 625.954 332.999 626.054 337.728C626.706 368.618 628.255 441.969 696.032 364.646C740.025 314.456 756.806 290.753 761.483 281.111C760.227 295.528 760.809 313 770.885 297.498C773.939 292.799 777.896 287.348 782.221 281.39C796.377 261.886 814.471 236.956 817.73 215.248C817.714 231.181 817.897 258.971 818.043 281.242C818.138 295.722 818.218 307.869 818.218 312.909C818.218 315.903 818.077 319.094 817.935 322.311C817.19 339.203 816.412 356.813 835.831 350.335C839.871 348.988 843.46 347.37 846.625 345.612C848.788 344.41 852.909 347.963 851.636 350.086C818.446 405.442 770.885 490.316 770.885 513.25C770.885 518.525 770.707 523.069 770.555 526.964C769.752 547.455 769.654 549.973 799.87 546.273C835.831 541.87 860.048 533.064 865.552 523.157C865.981 522.383 865.908 522.522 865.415 523.448C862.366 529.181 843.274 565.078 828.131 601.721Z" fill="white"/>
<path d="M818.218 207.229C818.315 209.839 818.14 212.518 817.73 215.248C817.742 203.08 817.87 197.827 818.218 207.229Z" fill="white"/>
<path d="M761.483 281.111C762.486 279.043 762.932 277.622 762.971 276.725C763.014 275.718 761.984 276.23 761.871 277.232C761.73 278.48 761.599 279.783 761.483 281.111Z" fill="white"/>
</svg>
