<svg xmlns="http://www.w3.org/2000/svg" width="443.168" height="479.811" viewBox="0 0 443.168 479.811">
  <g id="leaf" transform="translate(-796 -348)">
    <path id="Path_1" data-name="Path 1" d="M881.779,799.271l60.554-87.244-63.792-7.974L856.964,603.205,913.72,556.3l53.941,20.169v-59.1l102.254-72.7,85.368,6.1L1143.557,556.3l-30.02,75.049-17.824,60.508,2.345,56.756L1087.271,785.2l-56.756-4.221-45.5-27.674L976.1,720l-65.2,99.44Z" fill="#005d09"/>
    <path id="zomer-blad-2" d="M146.542,364.634a97.472,97.472,0,0,1-24.576-6.474c-22.805-9.631-17.956-12.43-.027-6.348,10.229,3.6,26.778,3.432,38.585,2.014l6.247-6.506c-12.517-6.467-37.372-20.715-57.75-38.311-28.346-24.677-26.171-34.067,4.642-7.834,22.415,19.038,47.39,32.411,59.966,38.442,1.042-1.084,1.652-2.282,2.693-3.367,3.734-4.45,7.528-9.338,11.321-14.226-9.586-11.583-33.647-41.471-55.432-71.666C104.853,211.9,123,226.194,138.6,249.325c11.888,17.624,43.889,48.246,57.726,61.4q16.337-21.51,34.143-43.991c-7.31-11.889-23.79-38.422-36.521-66.231-17.2-37.592-6.145-26.979,10.972,4.7a424.685,424.685,0,0,0,33.136,51.753c16.767-21.4,33.593-43.23,49.318-63.542-5.215-10.884-21.423-45.95-24.416-69.835-3.173-22.573,1.212-18.7,7.4,4.668,5.256,20.4,20.083,49.219,23.991,56.589,45.033-58.331,49.569-62.117,49.569-62.117s-56.253,81.641-74.167,108.17c5.128,4.974,14.508,11.521,26.892,15.689,18.852,5.872,22.686,10.506,1.871,5.928-15.641-3.215-29.392-10.461-35.249-13.363-12.959,19.682-26.349,39.251-38.327,58.286,4.816,3.986,15.742,12.3,35.708,19.824,28.038,10.557,31.4,18.687-1.074,7.868-21.81-7.1-35.249-13.362-41.909-16.928-6.354,10.553-12.588,20.233-18.391,30.026,10.329,12.684,38.523,45.02,61.355,61,29,19.869,31.6,23.724-1.519,4.582-25.658-14.912-55.549-41.354-67.41-52.631-2.321,3.917-4.151,7.511-6.413,10.991a127.063,127.063,0,0,0,23.717,35.685c18.786,19.441,16.227,25.107-6.573,2.344-11.37-11.6-18.117-21.076-21.653-27.895C172.64,395.965,185,423.224,192.8,434.789c49.423,76.423,163.5,48.962,209.41-19.1,35.336-52.734-92.021-81.759-71.879-104.983,20.633-23.548,113.1,90.935,113.037-39.509.054-59.312-72.741-33.2-79.436-59.422-10.571-40.373,75.911,26.34,75.1-33.2-.672-27.8-3.473-49.825-10.223-88.739A466.4,466.4,0,0,0,412.1,22.484S378.2,38.462,345.3,27.53C311.971,16.484,267.6-15.132,240.333,11.2c-47.362,45.943,7.043,121.866-23.125,117.088-23.64-3.511-36.4-67.1-29.639-97.024,7.672-33.3-71.865-29.8-78.593,22.77-10.526,70.592,62.145,130.5,55.593,152.319-8.859,28.914-51.788-39.458-65.349-74.279s-86.953-4.34-97.572,73.473C-11.774,303.9,70.645,413.475,146.542,364.634Z" transform="translate(795.799 347.015)" fill="green"/>
  </g>
</svg>
