<svg width="825" height="818" viewBox="0 0 825 818" fill="none" xmlns="http://www.w3.org/2000/svg">
<path fill-rule="evenodd" clip-rule="evenodd" d="M48.0968 774.34C52.3661 782.107 56.306 791.351 56.4681 798.686C56.8045 813.914 86.4089 825.36 115.918 812.162C145.426 798.963 171.38 797.27 206.305 806.133C241.23 814.997 254.646 793.416 245.218 772.338C235.791 751.26 237.422 744.056 269.729 756.114C273.394 757.482 277.596 759.167 282.243 761.03C318.56 775.589 382.029 801.033 428.25 771.209C469.959 744.298 458.952 720.717 448.236 712.291C430.325 699.391 403.429 675.993 439.132 685.601C474.836 695.209 539.28 708.934 567.039 714.595C584.216 711.23 615.44 696.593 602.912 664.963C590.383 633.334 609.302 622.848 620.327 621.558C639.195 613.523 670.841 587.55 646.486 547.936C645.344 546.078 644.226 544.268 643.136 542.502C615.163 497.197 605.488 481.527 677.389 465.922C678.28 465.729 679.168 465.536 680.054 465.344C753.339 449.446 804.676 438.31 800.036 388.6C796.28 348.352 765.86 329.084 751.119 324.481C731.043 318.352 705.652 292.772 764.704 239.486C823.755 186.201 828.086 113.062 822.87 83.1536C816.693 67.2316 790.069 36.5095 732.988 40.9965C675.907 45.4835 617.648 56.8354 595.654 61.9505C579.432 68.0594 541.253 72.1584 518.31 39.6831C495.366 7.20782 469.189 0.139432 458.968 0.664639C435.825 1.09982 382.549 20.2733 354.589 93.4859C347.416 112.267 341.271 129.685 335.828 145.111C314.75 204.851 304.216 234.706 285.422 198.08C261.775 151.997 236.629 132.07 215.953 154.858C215.337 155.537 214.737 156.199 214.152 156.845C195.125 177.852 192.349 180.917 170.49 165.702C147.96 150.02 109.891 140.686 104.839 206.515C100.797 259.179 114.8 342.958 122.306 378.265C124.318 396.346 121.871 428.08 95.9938 410.371C63.6469 388.233 50.3343 397.2 54.831 427.125C58.4284 451.064 88.0799 535.477 102.456 574.69C106.846 594.72 109.007 626.653 82.536 594.145C80.9006 592.136 79.3266 590.199 77.8117 588.334C48.6776 552.468 41.414 543.526 39.4334 575.914C38.8365 585.677 39.9076 597.528 41.036 610.014C43.8459 641.105 47.0115 676.131 25.6635 692.643C-4.25773 715.787 -2.20473 722.281 3.25778 735.504C5.9458 742.011 12.62 744.717 19.8444 747.645C23.5804 749.159 27.4635 750.733 31.0185 752.924C36.1681 745.249 41.3608 737.643 46.594 730.104L8.93351 721.567L52.8028 721.218C61.7847 708.447 70.8815 695.873 80.0796 683.496L59.8263 614.158L86.023 675.545C103.471 652.334 121.271 629.825 139.33 608.015L95.0512 458.762L150.468 594.692C175.249 565.326 200.481 537.262 225.934 510.495L137.656 238.731L202.853 408.017L227.389 218.74L209.674 425.729L237.626 498.305C278.852 455.696 320.564 416.472 361.793 380.613L433.53 76.7895L380.681 364.39C507.434 256.869 628.178 181.396 714.439 137.417C732.613 128.048 750.819 119.441 769.017 111.688C770.826 110.916 772.606 110.166 774.357 109.437C772.577 110.179 770.797 110.93 769.017 111.688C752.961 118.541 734.646 127.115 714.439 137.417C601.068 195.864 488.95 283.981 387.897 379.543L685.597 390.989L369.59 397.05C327.725 437.536 287.916 479.097 250.893 520.086L332.321 560.87L576.867 561.828L353.812 571.633L527.573 658.662L241.688 530.328C215.845 559.232 191.423 587.78 168.682 615.393L349.498 702.379L155.588 631.414C136.379 655.101 118.479 677.994 102.057 699.708L185.675 761.631L92.1066 712.963C87.2758 719.447 82.5862 725.813 78.0429 732.05L89.9178 779.963L70.0673 743.077C62.2579 753.95 54.9252 764.392 48.0968 774.34Z" fill="white"/>
</svg>
