<svg xmlns="http://www.w3.org/2000/svg" width="834.658" height="826.145" viewBox="0 0 834.658 826.145">
  <g id="lente-blad-transition" transform="translate(-537.852 -100)">
    <path id="takje" d="M579.039,852.25s10.322-19.814,10.02-20.078-33.75-8.937-33.75-8.937l.716-8.673,39.821-.83,6.347-113.949L666.6,713.364,635.377,548.149l69.166-55.025L673.881,322.869s42-3.22,42.844-3.22,65.806-13.861,65.806-13.861l96.749,31.643L959.136,149.2l324.391,72.78-35.35,219.38,5.2,72.26-173.632,56.145,71.74,122.166-63.943,96.693L923.786,744.435l-13,87.737L751.193,803.7l-4.679,74.859-134.123,7.278-16.544-11.793-32.8,52.1-25.193-18Z" fill="#f7ffc3"/>
    <path id="lente-blad" d="M48.1,774.34c4.269,7.767,8.209,17.011,8.371,24.346.336,15.228,29.941,26.674,59.45,13.476s55.462-14.892,90.387-6.029,48.341-12.717,38.913-33.795-7.8-28.282,24.511-16.224c3.665,1.368,7.867,3.053,12.514,4.916,36.317,14.559,99.786,40,146.007,10.179,41.709-26.911,30.7-50.492,19.986-58.918-17.911-12.9-44.807-36.3-9.1-26.69s100.148,23.333,127.907,28.994c17.177-3.365,48.4-18,35.873-49.632s6.39-42.115,17.415-43.405c18.868-8.035,50.514-34.008,26.159-73.622q-1.713-2.787-3.35-5.434c-27.973-45.305-37.648-60.975,34.253-76.58l2.665-.578c73.285-15.9,124.622-27.034,119.982-76.744-3.756-40.248-34.176-59.516-48.917-64.119-20.076-6.129-45.467-31.709,13.585-84.995S828.086,113.062,822.87,83.154c-6.177-15.922-32.8-46.644-89.882-42.157S617.648,56.835,595.654,61.951c-16.222,6.109-54.4,10.208-77.344-22.267S469.189.139,458.968.665c-23.143.435-76.419,19.609-104.379,92.821-7.173,18.781-13.318,36.2-18.761,51.625-21.078,59.74-31.612,89.6-50.406,52.969-23.647-46.083-48.793-66.01-69.469-43.222l-1.8,1.987c-19.027,21.007-21.8,24.072-43.662,8.857-22.53-15.682-60.6-25.016-65.651,40.813-4.042,52.664,9.961,136.443,17.467,171.75,2.012,18.081-.435,49.815-26.312,32.106C63.647,388.233,50.334,397.2,54.831,427.125c3.6,23.939,33.249,108.352,47.625,147.565,4.39,20.03,6.551,51.963-19.92,19.455q-2.453-3.014-4.724-5.811c-29.134-35.866-36.4-44.808-38.378-12.42-.6,9.763.474,21.614,1.6,34.1,2.81,31.091,5.976,66.117-15.372,82.629C-4.258,715.787-2.2,722.281,3.258,735.5c2.688,6.507,9.362,9.213,16.587,12.141a73.96,73.96,0,0,1,11.174,5.279q7.724-11.512,15.576-22.82l-37.66-8.537,43.869-.349Q66.276,702.062,80.08,683.5L59.826,614.158l26.2,61.387q26.172-34.816,53.307-67.53L95.051,458.762l55.417,135.93q37.171-44.049,75.466-84.2L137.656,238.731l65.2,169.286L227.389,218.74,209.674,425.729,237.626,498.3c41.226-42.609,82.938-81.833,124.167-117.692L433.53,76.789l-52.849,287.6C507.434,256.869,628.178,181.4,714.439,137.417q27.261-14.054,54.578-25.729,2.713-1.158,5.34-2.251-2.67,1.113-5.34,2.251c-16.056,6.853-34.371,15.427-54.578,25.729C601.068,195.864,488.95,283.981,387.9,379.543l297.7,11.446L369.59,397.05c-41.865,40.486-81.674,82.047-118.7,123.036l81.428,40.784,244.546.958-223.055,9.8,173.761,87.029L241.688,530.328c-25.843,28.9-50.265,57.452-73.006,85.065L349.5,702.379l-193.91-70.965c-19.209,23.687-37.109,46.58-53.531,68.294l83.618,61.923L92.107,712.963q-7.246,9.726-14.064,19.087l11.875,47.913L70.067,743.077Q58.353,759.387,48.1,774.34Z" transform="translate(548.01 99.362)" fill="#265010" fill-rule="evenodd"/>
  </g>
</svg>
