<svg width="825" height="818" viewBox="0 0 825 818" fill="none" xmlns="http://www.w3.org/2000/svg">
<path fill-rule="evenodd" clip-rule="evenodd" d="M776.755 774.098C772.485 781.865 768.546 791.109 768.383 798.443C768.047 813.672 738.443 825.118 708.934 811.919C679.425 798.721 653.472 797.027 618.547 805.891C583.622 814.755 570.206 793.173 579.633 772.096C589.061 751.018 587.429 743.814 555.122 755.872C551.458 757.24 547.255 758.925 542.609 760.788C506.292 775.347 442.823 800.79 396.601 770.967C354.893 744.055 365.899 720.475 376.616 712.049C394.527 699.149 421.422 675.75 385.719 685.359C350.016 694.967 285.572 708.691 257.813 714.352C240.635 710.988 209.412 696.351 221.94 664.721C234.468 633.091 215.55 622.606 204.524 621.316C185.657 613.281 154.011 587.307 178.366 547.693C179.508 545.836 180.626 544.026 181.716 542.26C209.688 496.955 219.363 481.284 147.463 465.68C146.571 465.487 145.683 465.294 144.798 465.102C71.5124 449.204 20.176 438.068 24.8153 388.358C28.5715 348.11 58.9916 328.842 73.7321 324.239C93.8087 318.11 119.199 292.529 60.1478 239.244C1.09643 185.959 -3.23436 112.82 1.98166 82.9114C8.15846 66.9894 34.7824 36.2673 91.8637 40.7543C148.945 45.2413 207.204 56.5933 229.198 61.7084C245.419 67.8172 283.598 71.9162 306.542 39.4409C329.485 6.96563 355.663 -0.102757 365.883 0.422449C389.026 0.857633 442.302 20.0311 470.263 93.2437C477.435 112.025 483.581 129.443 489.023 144.869C510.102 204.609 520.635 234.463 539.429 197.838C563.076 151.755 588.223 131.827 608.898 154.616C609.515 155.295 610.114 155.957 610.699 156.603C629.727 177.61 632.503 180.675 654.362 165.46C676.892 149.778 714.961 140.444 720.013 206.273C724.055 258.937 710.052 342.716 702.545 378.023C700.534 396.104 702.98 427.838 728.858 410.128C761.205 387.991 774.517 396.958 770.021 426.883C766.423 450.822 736.772 535.234 722.396 574.448C718.006 594.478 715.845 626.411 742.316 593.903C743.951 591.894 745.525 589.957 747.04 588.092C776.174 552.226 783.437 543.284 785.418 575.672C786.015 585.435 784.944 597.286 783.816 609.772C781.006 640.863 777.84 675.889 799.188 692.401C829.109 715.545 827.056 722.039 821.594 735.262C818.906 741.769 812.232 744.474 805.007 747.403C801.271 748.917 797.388 750.491 793.833 752.682C788.683 745.007 783.491 737.401 778.258 729.862L815.918 721.325L772.049 720.976C763.067 708.205 753.97 695.631 744.772 683.254L765.025 613.915L738.829 675.302C721.38 652.092 703.581 629.583 685.521 607.773L729.8 458.52L674.383 594.449C649.602 565.084 624.37 537.02 598.918 510.253L687.196 238.489L621.999 407.775L597.462 218.498L615.177 425.487L587.226 498.063C546 455.454 504.288 416.23 463.059 380.371L391.322 76.5473L444.171 364.147C317.418 256.627 196.674 181.154 110.412 137.175C92.2384 127.806 74.0323 119.199 55.8345 111.446C54.0255 110.674 52.2452 109.924 50.4941 109.195C52.2741 109.937 54.0543 110.688 55.8345 111.446C71.8909 118.299 90.2055 126.873 110.412 137.175C223.784 195.622 335.902 283.739 436.955 379.301L139.255 390.747L455.261 396.808C497.127 437.294 536.935 478.855 573.959 519.844L492.53 560.628L247.985 561.585L471.04 571.391L297.279 658.42L583.163 530.086C609.007 558.989 633.428 587.538 656.17 615.151L475.354 702.137L669.264 631.172C688.473 654.859 706.373 677.752 722.794 699.466L639.176 761.389L732.745 712.721C737.576 719.204 742.265 725.571 746.809 731.808L734.934 779.72L754.784 742.834C762.594 753.708 769.926 764.15 776.755 774.098Z" fill="white"/>
</svg>
