<?xml version="1.0" encoding="UTF-8"?><svg id="scrollplant" xmlns="http://www.w3.org/2000/svg" viewBox="0 0 225 413.3"><defs><style>.pls-1{stroke-width:3px;}.pls-1,.pls-2,.pls-3,.pls-4,.pls-5{fill:none;stroke:#30680c;stroke-miterlimit:10;}.pls-2{stroke-width:5px;}.pls-3{stroke-width:2px;}.pls-4{stroke-width:4px;}.pls-5{stroke-width:9px;}.pls-6{fill:#631700;}.pls-6,.pls-7,.pls-8,.pls-9,.pls-10,.pls-11{stroke-width:0px;}.pls-7{fill:#754c24;}.pls-8{fill:#7d2801;}.pls-9{fill:#378a04;}.pls-10{fill:#fdcf08;}.pls-11{fill:#fda90b;}</style></defs><g id="Laag_2-2"><path class="pls-5" d="m111,401.3c-1.52-9.61-3.47-24.11-4.41-41.81-3.2-60.1,7.96-104.3,11.8-122.97,7.84-38.16,11.05-95.89-11.98-179.03"/><path class="pls-2" d="m106.02,346.62s10.98-22.31,33.98-24.31"/><path class="pls-4" d="m106.02,352.5s-12.02-16.2-21.02-12.2"/><path class="pls-4" d="m107,316.3s8.75-25.59,16-24.99"/><path class="pls-4" d="m113.06,262.56s-13.06-15.26-22.06-10.26"/><path class="pls-1" d="m117,242.3c2.81-3.53,6.87-7.89,12.31-11.67,4.15-2.89,8.02-4.69,11.19-5.83"/><path class="pls-1" d="m124,191.3s-5.34-18.31-22.97-18.73"/><path class="pls-3" d="m123,155.58s7-8.28,13-8.28"/></g><g id="Laag_3"><g id="Laag_1-2"><path class="pls-7" d="m18,413.3s12-16,29-15c0,0,9.42,3.91,11.21-.04,0,0-2.5-2.04,6.64,0s11.07-.91,11.07-.91c0,0,17.07,7.05,31.07,0s28.4,0,28.4,0c0,0,10.6-7.05,61.6,13.95l3.25,2H18Z"/></g><path class="pls-9" d="m139,320.3s8-55,60-6c0,0,18,28,26,27,0,0-19-1-41,9,0,0-40,12.09-45-11.45,0,0-2-2.55,0-18.55Z"/></g><g id="Laag_4"><path class="pls-9" d="m87,338.3s17-32-27-37c0,0-25,2-38,12,0,0-9,11-22,5,0,0,25,15,29,23,0,0,30,34,48,17,0,0,10-10,10-20Z"/></g><g id="Laag_5"><path class="pls-9" d="m122.5,295.8s16,16,29-11c0,0,1-2,1-10,0,0-3-20,33-21-1.98-.06-5.06-.26-8.75-1-6.42-1.29-8.93-3.07-13.25-4-5.5-1.18-9.88-.1-15.38,1.25-12.53,3.08-21.63,10.14-26.62,14.75,0,0-15,15,1,31Z"/></g><g id="Laag_6"><path class="pls-9" d="m95.41,248.3s.59-19-22.41-22c0,0-18.8-6.01-38.4,24.99,0,0-12.6,17.01-26.6,20.01,3.83,1.1,6.99,1.54,9.12,1.75,5.79.56,8.07-.25,15.88.25,2.73.18,4.67.3,7.12.75,6.16,1.13,10.87,3.46,13.88,5.25,0,0,47.83,15.99,41.41-31Z"/></g><g id="Laag_7"><path class="pls-9" d="m141.41,229.4s12.59,17.9,35.59,2.9c0,0,5-4,6-6,0,0,3-13,27-19-1.89.25-4.71.44-8-.12-7.08-1.22-11.5-5.08-14-6.88-11.37-8.13-32.45-8.48-42.44,1-2.02,1.92-5.17,5.75-6.56,13,0,0-2.19,9.2,2.41,15.1Z"/></g><g id="Laag_8"><path class="pls-9" d="m103,169.3s9-27-26-30c0,0-27-3-39,8,0,0-8,12-20,15,4.22-1.73,11.26-3.91,20.02-3.39,4.21.25,14.82.87,23,8.09,3.2,2.82,3.17,4.13,6.87,7.15,5.31,4.34,11.01,6.23,15.12,7.15,0,0,15,5,20-12Z"/></g><g id="Laag_9"><path class="pls-9" d="m132,138.3c-.01.6-.05,7.8,5.52,11.74,2.47,1.75,5.05,2.15,6.48,2.26,0,0,10,2,16-11,0,0,2-14,27-12,0,0-8-1-14-6-1.95-1.06-13.72-7.21-25.99-2.1-.97.4-14.79,6.37-15.01,17.1Z"/></g><g id="Laag_10"><path class="pls-11" d="m101.3,35.94c1.44-4.94,4.19-12.48,9.53-20.41,5.04-7.47,10.44-12.4,14.19-15.34.98,5.05,1.83,11.96,1.44,20.25-.43,9.16-2.21,16.79-3.85,22.19-7.1-2.23-14.21-4.46-21.31-6.7Z"/><path class="pls-11" d="m89.02,42.82c-1.23-5-2.61-12.9-1.95-22.44.63-8.99,2.84-15.96,4.61-20.38,3.37,3.89,7.56,9.45,11.37,16.82,4.21,8.15,6.48,15.64,7.76,21.15-7.27,1.62-14.54,3.24-21.8,4.86Z"/><path class="pls-11" d="m81.82,54.92c-3.56-3.71-8.71-9.87-12.91-18.46-3.95-8.1-5.52-15.24-6.19-19.96,4.86,1.68,11.27,4.4,18.26,8.88,7.72,4.95,13.44,10.31,17.29,14.43-5.48,5.04-10.97,10.07-16.45,15.11Z"/><path class="pls-11" d="m81.64,69c-4.94-1.44-12.48-4.19-20.41-9.53-7.47-5.04-12.4-10.44-15.34-14.19,5.05-.98,11.96-1.83,20.25-1.44,9.16.43,16.79,2.21,22.19,3.85-2.23,7.1-4.46,14.21-6.7,21.31Z"/><path class="pls-11" d="m88.52,81.29c-5,1.23-12.9,2.61-22.44,1.95-8.99-.63-15.96-2.84-20.38-4.61,3.89-3.37,9.45-7.56,16.82-11.37,8.15-4.21,15.64-6.48,21.15-7.76,1.62,7.27,3.24,14.54,4.86,21.8Z"/><path class="pls-11" d="m100.62,88.48c-3.71,3.56-9.87,8.71-18.46,12.91-8.1,3.95-15.24,5.52-19.96,6.19,1.68-4.86,4.4-11.27,8.88-18.26,4.95-7.72,10.31-13.44,14.43-17.29,5.04,5.48,10.07,10.97,15.11,16.45Z"/><path class="pls-11" d="m114.7,88.66c-1.44,4.94-4.19,12.48-9.53,20.41-5.04,7.47-10.44,12.4-14.19,15.34-.98-5.05-1.83-11.96-1.44-20.25.43-9.16,2.21-16.79,3.85-22.19,7.1,2.23,14.21,4.46,21.31,6.7Z"/><path class="pls-11" d="m126.98,81.78c1.23,5,2.61,12.9,1.95,22.44-.63,8.99-2.84,15.96-4.61,20.38-3.37-3.89-7.56-9.45-11.37-16.82-4.21-8.15-6.48-15.64-7.76-21.15,7.27-1.62,14.54-3.24,21.8-4.86Z"/><path class="pls-11" d="m134.18,69.68c3.56,3.71,8.71,9.87,12.91,18.46,3.95,8.1,5.52,15.24,6.19,19.96-4.86-1.68-11.27-4.4-18.26-8.88-7.72-4.95-13.44-10.31-17.29-14.43,5.48-5.04,10.97-10.07,16.45-15.11Z"/><path class="pls-11" d="m134.36,55.6c4.94,1.44,12.48,4.19,20.41,9.53,7.47,5.04,12.4,10.44,15.34,14.19-5.05.98-11.96,1.83-20.25,1.44-9.16-.43-16.79-2.21-22.19-3.85,2.23-7.1,4.46-14.21,6.7-21.31Z"/><path class="pls-11" d="m127.48,43.32c5-1.23,12.9-2.61,22.44-1.95,8.99.63,15.96,2.84,20.38,4.61-3.89,3.37-9.45,7.56-16.82,11.37-8.15,4.21-15.64,6.48-21.15,7.76-1.62-7.27-3.24-14.54-4.86-21.8Z"/><path class="pls-11" d="m115.38,36.12c3.71-3.56,9.87-8.71,18.46-12.91,8.1-3.95,15.24-5.52,19.96-6.19-1.68,4.86-4.4,11.27-8.88,18.26-4.95,7.72-10.31,13.44-14.43,17.29-5.04-5.48-10.07-10.97-15.11-16.45Z"/><path class="pls-10" d="m98.55,44.58c-.08-4.78.19-12.22,2.27-20.73,1.96-8.02,4.75-13.89,6.8-17.54,1.86,4.2,4.06,10.09,5.67,17.54,1.78,8.23,2.23,15.49,2.27,20.73h-17.01Z"/><path class="pls-10" d="m90.95,51.68c-2.46-4.09-5.94-10.68-8.4-19.09-2.32-7.93-2.83-14.41-2.88-18.6,3.72,2.71,8.56,6.71,13.68,12.36,5.66,6.24,9.68,12.3,12.33,16.82-4.91,2.84-9.82,5.67-14.73,8.51Z"/><path class="pls-10" d="m87.93,61.62c-4.18-2.32-10.49-6.28-16.82-12.33-5.97-5.71-9.65-11.06-11.79-14.66,4.57.49,10.77,1.53,18.03,3.86,8.02,2.57,14.53,5.81,19.09,8.4-2.84,4.91-5.67,9.82-8.51,14.73Z"/><path class="pls-10" d="m90.28,71.75c-4.78.08-12.22-.19-20.73-2.27-8.02-1.96-13.89-4.75-17.54-6.8,4.2-1.86,10.09-4.06,17.54-5.67,8.23-1.78,15.49-2.23,20.73-2.27,0,5.67,0,11.34,0,17.01Z"/><path class="pls-10" d="m97.38,79.35c-4.09,2.46-10.68,5.94-19.09,8.4-7.93,2.32-14.41,2.83-18.6,2.88,2.71-3.72,6.71-8.56,12.36-13.68,6.24-5.66,12.3-9.68,16.82-12.33,2.84,4.91,5.67,9.82,8.51,14.73Z"/><path class="pls-10" d="m107.32,82.38c-2.32,4.18-6.28,10.49-12.33,16.82-5.71,5.97-11.06,9.65-14.66,11.79.49-4.57,1.53-10.77,3.86-18.03,2.57-8.02,5.81-14.53,8.4-19.09,4.91,2.84,9.82,5.67,14.73,8.51Z"/><path class="pls-10" d="m117.45,80.03c.08,4.78-.19,12.22-2.27,20.73-1.96,8.02-4.75,13.89-6.8,17.54-1.86-4.2-4.06-10.09-5.67-17.54-1.78-8.23-2.23-15.49-2.27-20.73,5.67,0,11.34,0,17.01,0Z"/><path class="pls-10" d="m125.05,72.93c2.46,4.09,5.94,10.68,8.4,19.09,2.32,7.93,2.83,14.41,2.88,18.6-3.72-2.71-8.56-6.71-13.68-12.36-5.66-6.24-9.68-12.3-12.33-16.82,4.91-2.84,9.82-5.67,14.73-8.51Z"/><path class="pls-10" d="m128.07,62.98c4.18,2.32,10.49,6.28,16.82,12.33,5.97,5.71,9.65,11.06,11.79,14.66-4.57-.49-10.77-1.53-18.03-3.86-8.02-2.57-14.53-5.81-19.09-8.4l8.51-14.73Z"/><path class="pls-10" d="m125.72,52.85c4.78-.08,12.22.19,20.73,2.27,8.02,1.96,13.89,4.75,17.54,6.8-4.2,1.86-10.09,4.06-17.54,5.67-8.23,1.78-15.49,2.23-20.73,2.27,0-5.67,0-11.34,0-17.01Z"/><path class="pls-10" d="m118.62,45.26c4.09-2.46,10.68-5.94,19.09-8.4,7.93-2.32,14.41-2.83,18.6-2.88-2.71,3.72-6.71,8.56-12.36,13.68-6.24,5.66-12.3,9.68-16.82,12.33-2.84-4.91-5.67-9.82-8.51-14.73Z"/><path class="pls-10" d="m108.68,42.23c2.32-4.18,6.28-10.49,12.33-16.82,5.71-5.97,11.06-9.65,14.66-11.79-.49,4.57-1.53,10.77-3.86,18.03-2.57,8.02-5.81,14.53-8.4,19.09-4.91-2.84-9.82-5.67-14.73-8.51Z"/><circle class="pls-8" cx="108" cy="62.3" r="29"/><circle class="pls-6" cx="108" cy="62.3" r="16"/></g></svg>