<svg width="1478" height="1478" viewBox="0 0 1478 1478" fill="none" xmlns="http://www.w3.org/2000/svg">
<g clip-path="url(#clip0_212_164)">
<path fill-rule="evenodd" clip-rule="evenodd" d="M687.286 674.668C684.05 680.555 681.063 687.563 680.94 693.123C680.685 704.666 658.245 713.342 635.878 703.337C613.51 693.333 593.838 692.049 567.365 698.768C540.893 705.487 530.723 689.128 537.869 673.151C545.015 657.175 543.778 651.714 519.29 660.854C516.512 661.891 513.327 663.168 509.805 664.58C482.277 675.616 434.168 694.902 399.133 672.296C367.518 651.897 375.861 634.024 383.984 627.637C397.56 617.858 417.947 600.123 390.884 607.406C363.822 614.689 314.974 625.092 293.933 629.383C280.912 626.832 257.245 615.737 266.741 591.763C276.238 567.788 261.898 559.839 253.54 558.862C239.239 552.772 215.251 533.084 233.713 503.057C234.578 501.649 235.426 500.277 236.252 498.938C257.455 464.597 264.788 452.719 210.288 440.891L208.268 440.453C152.719 428.403 113.806 419.962 117.323 382.282C120.17 351.775 143.228 337.17 154.401 333.681C169.619 329.035 188.865 309.645 144.104 269.255C99.3442 228.866 96.0615 173.427 100.015 150.757C104.697 138.688 124.878 115.401 168.145 118.802C211.412 122.203 255.571 130.808 272.243 134.685C284.538 139.316 313.478 142.423 330.869 117.807C348.26 93.1906 368.102 87.8329 375.849 88.231C393.391 88.5608 433.774 103.094 454.967 158.589C460.404 172.824 465.062 186.027 469.188 197.72C485.165 243.002 493.149 265.632 507.395 237.87C525.319 202.94 544.38 187.835 560.052 205.108C560.519 205.623 560.974 206.125 561.417 206.614C575.839 222.537 577.944 224.86 594.512 213.328C611.59 201.441 640.446 194.366 644.276 244.264C647.339 284.182 636.725 347.686 631.035 374.448C629.51 388.153 631.365 412.208 650.98 398.784C675.498 382.004 685.589 388.801 682.181 411.483C679.454 429.629 656.978 493.613 646.082 523.337C642.754 538.519 641.116 562.724 661.181 538.083C662.42 536.561 663.613 535.092 664.762 533.678C686.845 506.492 692.351 499.714 693.852 524.264C694.304 531.664 693.493 540.648 692.637 550.112C690.507 573.678 688.108 600.227 704.289 612.744C726.969 630.286 725.413 635.209 721.273 645.232C719.235 650.164 714.176 652.215 708.7 654.434C705.869 655.582 702.926 656.775 700.231 658.435C696.328 652.618 692.392 646.853 688.426 641.139L716.972 634.668L683.72 634.403C676.911 624.723 670.016 615.192 663.044 605.81L678.396 553.252L658.539 599.783C645.313 582.19 631.822 565.128 618.132 548.597L651.696 435.464L609.69 538.497C590.906 516.238 571.781 494.966 552.488 474.677L619.402 268.683L569.983 397L551.385 253.53L564.813 410.426L543.626 465.437C512.377 433.14 480.76 403.409 449.508 376.228L395.132 145.933L435.191 363.931C339.114 282.431 247.591 225.224 182.206 191.888C168.43 184.786 154.63 178.262 140.837 172.386C139.465 171.8 138.116 171.232 136.789 170.68C138.138 171.242 139.487 171.811 140.837 172.386C153.007 177.58 166.889 184.079 182.206 191.888C268.14 236.19 353.125 302.982 429.722 375.417L204.068 384.093L443.598 388.687C475.332 419.375 505.506 450.878 533.57 481.947L471.847 512.861L286.484 513.587L455.558 521.02L323.849 586.986L540.546 489.71C560.135 511.619 578.647 533.259 595.885 554.189L458.828 620.123L605.81 566.333C620.37 584.287 633.938 601.64 646.385 618.099L583.004 665.036L653.928 628.146C657.589 633.06 661.144 637.886 664.588 642.614L655.587 678.931L670.633 650.972C676.552 659.213 682.11 667.128 687.286 674.668Z" fill="white" fill-opacity="0.1"/>
<path fill-rule="evenodd" clip-rule="evenodd" d="M381.37 1273.51C380.168 1275.7 379.058 1278.3 379.013 1280.37C378.918 1284.66 370.582 1287.88 362.273 1284.16C353.963 1280.45 346.655 1279.97 336.821 1282.47C326.986 1284.96 323.209 1278.88 325.863 1272.95C328.518 1267.01 328.058 1264.98 318.961 1268.38C317.929 1268.77 316.746 1269.24 315.438 1269.76C305.211 1273.86 287.339 1281.03 274.324 1272.63C262.579 1265.05 265.679 1258.41 268.696 1256.04C273.74 1252.41 281.313 1245.82 271.26 1248.52C261.206 1251.23 243.06 1255.09 235.243 1256.69C230.406 1255.74 221.614 1251.62 225.142 1242.71C228.67 1233.81 223.342 1230.85 220.238 1230.49C214.925 1228.23 206.014 1220.91 212.872 1209.76C213.194 1209.24 213.508 1208.73 213.815 1208.23C221.692 1195.47 224.416 1191.06 204.17 1186.67C203.919 1186.61 203.669 1186.56 203.42 1186.5C182.783 1182.03 168.328 1178.89 169.634 1164.89C170.692 1153.56 179.258 1148.13 183.409 1146.84C189.062 1145.11 196.211 1137.91 179.583 1122.91C162.955 1107.9 161.736 1087.31 163.205 1078.88C164.944 1074.4 172.441 1065.75 188.514 1067.01C204.587 1068.28 220.992 1071.47 227.185 1072.91C231.753 1074.63 242.504 1075.79 248.965 1066.64C255.425 1057.5 262.796 1055.51 265.674 1055.66C272.191 1055.78 287.193 1061.18 295.066 1081.79C297.086 1087.08 298.816 1091.99 300.349 1096.33C306.284 1113.15 309.25 1121.56 314.542 1111.25C321.201 1098.27 328.282 1092.66 334.104 1099.07C334.277 1099.27 334.446 1099.45 334.611 1099.63C339.969 1105.55 340.751 1106.41 346.906 1102.13C353.25 1097.71 363.97 1095.08 365.392 1113.62C366.53 1128.45 362.587 1152.04 360.474 1161.98C359.907 1167.07 360.596 1176.01 367.883 1171.02C376.991 1164.79 380.74 1167.32 379.474 1175.74C378.461 1182.48 370.111 1206.25 366.063 1217.29C364.827 1222.93 364.219 1231.93 371.672 1222.77C372.133 1222.21 372.576 1221.66 373.003 1221.14C381.206 1211.04 383.252 1208.52 383.809 1217.64C383.978 1220.39 383.676 1223.72 383.358 1227.24C382.567 1236 381.676 1245.86 387.687 1250.51C396.112 1257.02 395.534 1258.85 393.996 1262.58C393.239 1264.41 391.36 1265.17 389.325 1266C388.274 1266.42 387.18 1266.87 386.18 1267.48C384.73 1265.32 383.267 1263.18 381.794 1261.06L392.399 1258.65L380.046 1258.55C377.516 1254.96 374.955 1251.42 372.365 1247.93L378.068 1228.41L370.691 1245.69C365.778 1239.16 360.766 1232.82 355.681 1226.68L368.149 1184.65L352.544 1222.93C345.566 1214.66 338.461 1206.75 331.294 1199.22L356.152 1122.69L337.794 1170.36L330.884 1117.06L335.873 1175.35L328.002 1195.78C316.393 1183.79 304.648 1172.74 293.038 1162.64L272.838 1077.09L287.72 1158.08C252.028 1127.8 218.028 1106.55 193.738 1094.16C188.62 1091.53 183.494 1089.1 178.37 1086.92C177.86 1086.7 177.359 1086.49 176.866 1086.29C177.367 1086.49 177.868 1086.71 178.37 1086.92C182.891 1088.85 188.048 1091.26 193.738 1094.16C225.662 1110.62 257.233 1135.43 285.688 1162.34L201.86 1165.57L290.843 1167.27C302.631 1178.67 313.841 1190.38 324.266 1201.92L301.337 1213.4L232.476 1213.67L295.286 1216.43L246.357 1240.94L326.858 1204.8C334.135 1212.94 341.012 1220.98 347.416 1228.76L296.5 1253.25L351.103 1233.27C356.512 1239.94 361.552 1246.38 366.176 1252.5L342.631 1269.93L368.978 1256.23C370.338 1258.06 371.659 1259.85 372.938 1261.6L369.595 1275.1L375.184 1264.71C377.383 1267.77 379.448 1270.71 381.37 1273.51Z" fill="white" fill-opacity="0.1"/>
<path fill-rule="evenodd" clip-rule="evenodd" d="M1146.52 200.397C1147.42 198.068 1148.16 195.338 1147.93 193.286C1147.45 189.024 1155.27 184.706 1164.01 187.267C1172.74 189.829 1180.05 189.316 1189.45 185.516C1198.86 181.716 1203.42 187.228 1201.59 193.467C1199.76 199.706 1200.49 201.654 1209.05 197.062C1210.02 196.541 1211.13 195.912 1212.35 195.216C1221.93 189.774 1238.68 180.264 1252.71 186.829C1265.36 192.753 1263.19 199.75 1260.52 202.509C1256.01 206.788 1249.4 214.338 1258.99 210.301C1268.59 206.264 1286.05 199.987 1293.58 197.353C1298.5 197.639 1307.77 200.537 1305.47 209.838C1303.18 219.139 1308.86 221.346 1311.98 221.287C1317.55 222.812 1327.37 228.857 1322.08 240.835C1321.83 241.396 1321.59 241.944 1321.35 242.478C1315.27 256.181 1313.16 260.921 1333.82 262.544C1334.07 262.564 1334.33 262.584 1334.58 262.604C1355.63 264.256 1370.38 265.413 1370.97 279.458C1371.45 290.831 1363.7 297.362 1359.76 299.207C1354.39 301.679 1348.28 309.781 1366.78 322.405C1385.28 335.029 1389.27 355.271 1388.95 363.814C1387.83 368.491 1381.57 378.075 1365.47 378.991C1349.37 379.907 1332.69 378.953 1326.36 378.362C1321.6 377.273 1310.79 377.58 1305.62 387.513C1300.45 397.445 1293.42 400.412 1290.55 400.653C1284.07 401.411 1268.48 398.085 1257.9 378.72C1255.18 373.753 1252.81 369.126 1250.7 365.029C1242.55 349.161 1238.48 341.232 1234.63 352.165C1229.78 365.92 1223.52 372.436 1216.89 366.863C1216.69 366.697 1216.5 366.535 1216.31 366.377C1210.2 361.239 1209.31 360.489 1203.79 365.564C1198.1 370.796 1187.83 374.846 1183.92 356.671C1180.79 342.131 1181.52 318.223 1182.27 308.087C1182.14 302.966 1180.26 294.204 1173.71 300.129C1165.52 307.534 1161.47 305.538 1161.59 297.018C1161.68 290.202 1166.75 265.523 1169.27 254.036C1169.73 248.281 1169.12 239.289 1162.97 249.365C1162.59 249.987 1162.23 250.588 1161.88 251.166C1155.11 262.279 1153.42 265.05 1151.64 256.089C1151.1 253.387 1150.95 250.04 1150.79 246.513C1150.39 237.732 1149.95 227.839 1143.36 224.043C1134.14 218.722 1134.46 216.832 1135.48 212.935C1135.99 211.018 1137.75 210.009 1139.65 208.918C1140.64 208.353 1141.66 207.767 1142.57 207.021C1144.3 208.966 1146.03 210.891 1147.78 212.796L1137.6 216.608L1149.85 215.039C1152.84 218.261 1155.86 221.424 1158.89 224.528L1155.88 244.644L1160.85 226.521C1166.6 232.334 1172.42 237.938 1178.29 243.337L1171.61 286.663L1181.91 246.632C1189.94 253.884 1198.04 260.756 1206.16 267.257L1191.85 346.436L1203.61 296.726L1217.65 348.605L1204.84 291.525L1209.88 270.214C1223.01 280.536 1236.13 289.896 1249 298.335L1280.56 380.38L1254.89 302.144C1294.34 327.328 1330.89 343.799 1356.63 352.793C1362.06 354.717 1367.46 356.427 1372.84 357.899C1373.37 358.045 1373.9 358.187 1374.41 358.324C1373.89 358.184 1373.36 358.043 1372.84 357.899C1368.1 356.597 1362.66 354.9 1356.63 352.793C1322.78 340.792 1288.15 320.466 1256.32 297.642L1338.95 283.139L1250.55 293.452C1237.33 283.747 1224.65 273.663 1212.76 263.633L1233.93 249.16L1302.12 239.604L1239.52 245.341L1284.69 214.458L1209.8 261.125C1201.49 254.042 1193.6 247.004 1186.2 240.164L1233.35 209.025L1181.94 236.191C1175.68 230.312 1169.82 224.605 1164.41 219.17L1185.39 198.716L1161.13 215.85C1159.53 214.224 1157.98 212.626 1156.48 211.058L1157.97 197.239L1153.84 208.285C1151.24 205.548 1148.8 202.913 1146.52 200.397Z" fill="white" fill-opacity="0.1"/>
<path fill-rule="evenodd" clip-rule="evenodd" d="M830.199 829.217C833.204 823.208 835.916 816.09 835.823 810.529C835.629 798.985 857.715 789.443 880.454 798.57C903.193 807.698 922.901 808.215 949.092 800.472C975.284 792.73 986.082 808.681 979.562 824.923C973.043 841.165 974.491 846.574 998.605 836.489C1001.34 835.344 1004.47 833.945 1007.94 832.397C1035.02 820.299 1082.34 799.158 1118.23 820.384C1150.61 839.538 1142.97 857.723 1135.1 864.42C1121.91 874.719 1102.23 893.234 1128.99 884.905C1155.75 876.575 1204.16 864.281 1225.02 859.175C1238.13 861.217 1262.21 871.383 1253.65 895.709C1245.09 920.036 1259.73 927.42 1268.12 928.072C1282.65 933.602 1307.38 952.342 1290.1 983.064C1289.29 984.505 1288.5 985.909 1287.72 987.278C1267.87 1022.42 1261.01 1034.57 1315.92 1044.27C1316.61 1044.39 1317.28 1044.51 1317.96 1044.63C1373.94 1054.51 1413.15 1061.43 1411.1 1099.22C1409.44 1129.82 1386.97 1145.31 1375.94 1149.23C1360.91 1154.46 1342.43 1174.59 1388.73 1213.21C1435.03 1251.82 1440.46 1307.09 1437.39 1329.9C1433.19 1342.14 1413.93 1366.2 1370.56 1364.48C1327.19 1362.76 1282.73 1355.88 1265.92 1352.66C1253.46 1348.51 1224.42 1346.53 1208 1371.8C1191.58 1397.07 1171.96 1403.2 1164.2 1403.1C1146.66 1403.45 1105.74 1390.5 1082.41 1335.87C1076.42 1321.86 1071.25 1308.85 1066.68 1297.33C1048.95 1252.7 1040.09 1230.4 1026.94 1258.69C1010.38 1294.29 991.924 1310.13 975.593 1293.48C975.106 1292.98 974.632 1292.49 974.17 1292.02C959.139 1276.67 956.946 1274.43 940.838 1286.6C924.236 1299.14 895.677 1307.33 889.91 1257.62C885.297 1217.85 893.434 1153.99 898.08 1127.02C899.07 1113.27 896.282 1089.3 877.204 1103.48C853.356 1121.2 843.009 1114.8 845.533 1092C847.552 1073.77 867.523 1008.96 877.256 978.832C879.99 963.531 880.687 939.281 861.595 964.683C860.415 966.253 859.28 967.767 858.188 969.224C837.178 997.248 831.94 1004.23 829.486 979.762C828.746 972.385 829.208 963.377 829.695 953.887C830.907 930.255 832.272 903.633 815.616 891.755C792.271 875.107 793.635 870.128 797.383 859.952C799.227 854.944 804.202 852.698 809.588 850.267C812.373 849.01 815.267 847.704 817.895 845.94C822.021 851.601 826.178 857.209 830.364 862.765L802.091 870.341L835.328 869.312C842.508 878.72 849.768 887.976 857.1 897.08L843.803 950.195L861.836 902.927C875.736 919.993 889.88 936.517 904.202 952.504L875.062 1066.86L913.03 962.267C932.665 983.779 952.603 1004.29 972.67 1023.82L913.816 1232.26L958.208 1102.11L982.371 1244.75L962.853 1088.5L981.885 1032.7C1014.37 1063.76 1047.12 1092.24 1079.4 1118.19L1142.69 1346.19L1094.18 1129.92C1193.36 1207.62 1287.03 1261.23 1353.67 1292C1367.71 1298.56 1381.75 1304.54 1395.76 1309.87C1397.16 1310.41 1398.53 1310.92 1399.87 1311.42C1398.5 1310.91 1397.13 1310.4 1395.76 1309.87C1383.4 1305.16 1369.28 1299.2 1353.67 1292C1266.08 1251.07 1178.56 1187.63 1099.2 1118.23L1324.35 1100.79L1084.82 1105.51C1051.92 1076.08 1020.54 1045.77 991.292 1015.82L1051.77 982.526L1236.96 974.594L1067.73 973.74L1196.77 902.702L984.019 1008.33C963.593 987.199 944.254 966.295 926.215 946.051L1060.61 874.838L915.826 934.302C900.578 916.927 886.346 900.115 873.268 884.153L934.777 834.787L865.341 874.406C861.491 869.638 857.751 864.954 854.126 860.364L861.709 823.724L847.761 852.247C841.526 844.242 835.664 836.55 830.199 829.217Z" fill="white" fill-opacity="0.1"/>
</g>
<defs>
<clipPath id="clip0_212_164">
<rect width="1478" height="1478" fill="white"/>
</clipPath>
</defs>
</svg>
