<svg width="1478" height="1478" viewBox="0 0 1478 1478" fill="none" xmlns="http://www.w3.org/2000/svg">
<path d="M620.306 573.196C620.679 583.491 620.129 596.211 616.654 610.736C607.858 644.639 602.494 636.184 607.186 609.146C610.058 593.756 605.756 567.311 600.75 548.11C597.004 544.23 593.257 540.35 589.511 536.469C582.919 554.774 567.734 590.758 546.455 618.74C516.555 657.609 502.006 651.723 533.624 609.318C556.559 578.459 570.409 542.059 576.334 523.547C574.46 521.607 572.523 520.325 570.649 518.384C563.092 511.283 554.868 503.973 546.643 496.663C531.7 508.974 492.972 539.668 453.232 566.652C402.523 600.4 419.415 575.124 450.126 556.185C473.524 541.756 511.403 498.585 527.654 479.896C503.585 458.833 478.911 436.903 453.635 414.108C437.676 422.711 402.104 442.172 363.709 455.326C311.805 473.096 324.94 458.186 368.043 439.033C399.639 425.12 426.09 407.568 437.186 399.488C401.145 367.235 364.436 334.773 330.269 304.46C315.298 309.979 266.922 326.811 232.001 325.44C199.081 324.692 203.789 318.694 237.157 314.831C266.329 311.699 305.713 295.459 315.757 291.122C217.668 204.271 210.906 196.06 210.906 196.06C210.906 196.06 346.536 306.81 390.519 342.214C396.689 335.314 404.166 322.035 407.358 303.351C411.511 274.788 417.489 269.863 415.748 301.891C414.776 326.016 407.326 346.088 404.427 354.685C436.979 380.424 469.465 406.822 500.81 430.828C505.581 424.17 515.316 408.88 521.663 378.965C530.56 336.951 541.875 333.688 533.671 382.703C528.402 415.668 522.35 435.497 518.656 445.204C535.964 458.055 551.938 470.492 567.976 482.269C584.383 469.056 625.752 432.4 644.017 400.088C666.577 358.935 671.695 355.778 651.226 403.688C635.247 440.784 603.089 481.663 589.159 497.684C595.575 502.395 601.386 506.24 607.134 510.743C619.18 507.028 638.602 498.146 654.598 482.091C679.021 457.124 688.106 462.666 659.705 493.18C645.172 508.334 632.677 516.658 623.364 520.545C660.687 539.626 698.351 526.923 713.706 517.454C815.689 458.275 746.785 269.229 633.954 178.468C546.592 108.527 534.43 304.229 494.835 266.12C454.636 227.144 602.898 109.09 408.2 75.6254C319.652 60.2762 376.437 183.125 338.938 187.059C281.259 193.532 359.68 72.7364 271.004 58.7041C229.668 52.6223 197.48 51.4231 141.045 52.1776C84.6103 52.9306 44.5977 61.5101 44.5977 61.5101C44.5977 61.5101 76.7423 119.692 68.474 169.365C60.1416 219.697 23.8059 282.346 69.779 332.619C149.947 419.999 249.965 352.745 250.215 399.642C250.759 436.451 158.955 440.444 112.64 421.956C61.0515 401.149 85.7384 528.933 165.86 553.195C273.808 588.154 345.445 487.638 379.624 503.706C424.951 525.279 333.397 576.169 284.738 588.842C236.08 601.516 299.535 726.441 418.286 763.405C568.392 810.13 711.781 706.844 620.306 573.196Z" fill="white" fill-opacity="0.2"/>
<path d="M871.925 919.507C871.552 909.213 872.102 896.492 875.576 881.967C884.372 848.064 889.737 856.519 885.045 883.557C882.173 898.947 886.474 925.392 891.48 944.593C895.226 948.473 898.973 952.353 902.72 956.234C909.312 937.93 924.496 901.945 945.776 873.963C975.676 835.094 990.224 840.98 958.606 883.385C935.672 914.244 921.821 950.644 915.896 969.156C917.771 971.096 919.708 972.378 921.581 974.319C929.138 981.42 937.362 988.73 945.587 996.04C960.531 983.729 999.258 953.036 1039 926.051C1089.71 892.303 1072.82 917.579 1042.1 936.518C1018.71 950.947 980.828 994.118 964.576 1012.81C988.646 1033.87 1013.32 1055.8 1038.6 1078.6C1054.55 1069.99 1090.13 1050.53 1128.52 1037.38C1180.43 1019.61 1167.29 1034.52 1124.19 1053.67C1092.59 1067.58 1066.14 1085.13 1055.04 1093.22C1091.09 1125.47 1127.79 1157.93 1161.96 1188.24C1176.93 1182.72 1225.31 1165.89 1260.23 1167.26C1293.15 1168.01 1288.44 1174.01 1255.07 1177.87C1225.9 1181 1186.52 1197.24 1176.47 1201.58C1274.56 1288.43 1281.32 1296.64 1281.32 1296.64C1281.32 1296.64 1145.69 1185.89 1101.71 1150.49C1095.54 1157.39 1088.06 1170.67 1084.87 1189.35C1080.72 1217.91 1074.74 1222.84 1076.48 1190.81C1077.45 1166.69 1084.9 1146.61 1087.8 1138.02C1055.25 1112.28 1022.77 1085.88 991.421 1061.88C986.65 1068.53 976.914 1083.82 970.568 1113.74C961.67 1155.75 950.356 1159.01 958.559 1110C963.828 1077.04 969.88 1057.21 973.574 1047.5C956.266 1034.65 940.292 1022.21 924.254 1010.43C907.848 1023.65 866.479 1060.3 848.214 1092.62C825.653 1133.77 820.535 1136.93 841.004 1089.01C856.984 1051.92 889.141 1011.04 903.071 995.02C896.656 990.309 890.844 986.463 885.096 981.96C873.05 985.675 853.628 994.557 837.633 1010.61C813.21 1035.58 804.125 1030.04 832.525 999.523C847.058 984.369 859.553 976.045 868.866 972.158C831.543 953.077 793.88 965.78 778.524 975.249C676.541 1034.43 745.446 1223.47 858.276 1314.23C945.639 1384.18 957.801 1188.47 997.396 1226.58C1037.59 1265.56 889.332 1383.61 1084.03 1417.08C1172.58 1432.43 1115.79 1309.58 1153.29 1305.64C1210.97 1299.17 1132.55 1419.97 1221.23 1434C1262.56 1440.08 1294.75 1441.28 1351.19 1440.53C1407.62 1439.77 1447.63 1431.19 1447.63 1431.19C1447.63 1431.19 1415.49 1373.01 1423.76 1323.34C1432.09 1273.01 1468.42 1210.36 1422.45 1160.08C1342.28 1072.7 1242.27 1139.96 1242.02 1093.06C1241.47 1056.25 1333.28 1052.26 1379.59 1070.75C1431.18 1091.55 1406.49 963.77 1326.37 939.508C1218.42 904.55 1146.79 1005.07 1112.61 988.997C1067.28 967.424 1158.83 916.534 1207.49 903.862C1256.15 891.188 1192.7 766.262 1073.94 729.298C923.838 682.573 780.449 785.859 871.925 919.507Z" fill="white" fill-opacity="0.2"/>
<path d="M357.058 1228.87C357.18 1232.25 357 1236.43 355.86 1241.19C352.974 1252.32 351.214 1249.54 352.753 1240.67C353.695 1235.62 352.284 1226.94 350.641 1220.64C349.412 1219.37 348.183 1218.1 346.954 1216.82C344.791 1222.83 339.808 1234.64 332.826 1243.82C323.015 1256.57 318.241 1254.64 328.616 1240.73C336.141 1230.6 340.686 1218.66 342.63 1212.58C342.015 1211.95 341.379 1211.53 340.765 1210.89C338.285 1208.56 335.587 1206.16 332.888 1203.76C327.984 1207.8 315.277 1217.87 302.238 1226.73C285.599 1237.8 291.142 1229.51 301.218 1223.29C308.896 1218.56 321.325 1204.39 326.657 1198.26C318.759 1191.35 310.663 1184.15 302.37 1176.67C297.133 1179.5 285.461 1185.88 272.863 1190.2C255.832 1196.03 260.142 1191.14 274.285 1184.85C284.653 1180.29 293.332 1174.53 296.973 1171.88C285.147 1161.29 273.102 1150.64 261.891 1140.7C256.979 1142.51 241.105 1148.03 229.647 1147.58C218.846 1147.34 220.39 1145.37 231.339 1144.1C240.911 1143.07 253.834 1137.74 257.129 1136.32C224.944 1107.82 222.725 1105.13 222.725 1105.13C222.725 1105.13 267.229 1141.47 281.66 1153.08C283.685 1150.82 286.138 1146.46 287.185 1140.33C288.548 1130.96 290.51 1129.34 289.938 1139.85C289.62 1147.77 287.175 1154.36 286.224 1157.18C296.905 1165.62 307.564 1174.28 317.849 1182.16C319.414 1179.98 322.609 1174.96 324.691 1165.14C327.611 1151.36 331.323 1150.29 328.631 1166.37C326.902 1177.19 324.917 1183.69 323.705 1186.88C329.384 1191.09 334.625 1195.18 339.888 1199.04C345.271 1194.7 358.845 1182.68 364.838 1172.07C372.241 1158.57 373.92 1157.54 367.204 1173.26C361.96 1185.43 351.409 1198.84 346.838 1204.1C348.943 1205.64 350.85 1206.9 352.736 1208.38C356.689 1207.16 363.062 1204.25 368.31 1198.98C376.324 1190.79 379.305 1192.61 369.986 1202.62C365.217 1207.59 361.117 1210.32 358.062 1211.6C370.308 1217.86 382.666 1213.69 387.705 1210.58C421.167 1191.17 398.558 1129.14 361.536 1099.36C332.871 1076.41 328.88 1140.62 315.888 1128.12C302.698 1115.33 351.346 1076.59 287.462 1065.61C258.407 1060.57 277.04 1100.88 264.735 1102.17C245.81 1104.3 271.541 1064.66 242.445 1060.06C228.882 1058.06 218.32 1057.67 199.803 1057.92C181.285 1058.16 168.156 1060.98 168.156 1060.98C168.156 1060.98 178.704 1080.07 175.991 1096.37C173.257 1112.88 161.334 1133.44 176.419 1149.94C202.724 1178.61 235.542 1156.54 235.624 1171.93C235.802 1184.01 205.679 1185.32 190.482 1179.25C173.555 1172.42 181.655 1214.35 207.945 1222.31C243.365 1233.78 266.87 1200.8 278.085 1206.07C292.958 1213.15 262.917 1229.85 246.951 1234.01C230.985 1238.17 251.807 1279.16 290.771 1291.29C340.024 1306.62 387.073 1272.73 357.058 1228.87Z" fill="white" fill-opacity="0.2"/>
<path d="M1135.17 242.376C1135.05 238.998 1135.23 234.824 1136.37 230.058C1139.26 218.934 1141.02 221.708 1139.48 230.58C1138.54 235.63 1139.95 244.307 1141.59 250.607C1142.82 251.88 1144.05 253.153 1145.28 254.426C1147.44 248.42 1152.42 236.613 1159.4 227.432C1169.22 214.678 1173.99 216.609 1163.61 230.523C1156.09 240.649 1151.54 252.592 1149.6 258.666C1150.22 259.303 1150.85 259.724 1151.47 260.36C1153.95 262.691 1156.64 265.089 1159.34 267.488C1164.25 263.448 1176.95 253.377 1189.99 244.523C1206.63 233.449 1201.09 241.743 1191.01 247.957C1183.33 252.692 1170.91 266.857 1165.57 272.989C1173.47 279.901 1181.57 287.096 1189.86 294.576C1195.1 291.753 1206.77 285.367 1219.37 281.051C1236.4 275.221 1232.09 280.113 1217.95 286.397C1207.58 290.962 1198.9 296.721 1195.26 299.373C1207.08 309.956 1219.13 320.607 1230.34 330.553C1235.25 328.743 1251.13 323.22 1262.58 323.669C1273.38 323.915 1271.84 325.883 1260.89 327.15C1251.32 328.178 1238.4 333.507 1235.1 334.93C1267.29 363.428 1269.51 366.122 1269.51 366.122C1269.51 366.122 1225 329.782 1210.57 318.165C1208.55 320.43 1206.09 324.787 1205.05 330.917C1203.68 340.289 1201.72 341.905 1202.29 331.396C1202.61 323.481 1205.06 316.894 1206.01 314.073C1195.33 305.628 1184.67 296.966 1174.38 289.089C1172.82 291.274 1169.62 296.291 1167.54 306.107C1164.62 319.892 1160.91 320.963 1163.6 304.88C1165.33 294.064 1167.31 287.557 1168.53 284.373C1162.85 280.156 1157.61 276.075 1152.34 272.211C1146.96 276.546 1133.39 288.574 1127.39 299.176C1119.99 312.679 1118.31 313.715 1125.03 297.995C1130.27 285.823 1140.82 272.409 1145.39 267.153C1143.29 265.607 1141.38 264.345 1139.49 262.868C1135.54 264.087 1129.17 267.001 1123.92 272.269C1115.91 280.461 1112.93 278.643 1122.24 268.63C1127.01 263.658 1131.11 260.927 1134.17 259.651C1121.92 253.391 1109.56 257.559 1104.53 260.666C1071.06 280.083 1093.67 342.113 1130.69 371.894C1159.36 394.843 1163.35 330.629 1176.34 343.134C1189.53 355.922 1140.88 394.658 1204.77 405.639C1233.82 410.675 1215.19 370.366 1227.5 369.075C1246.42 366.951 1220.69 406.587 1249.79 411.191C1263.35 413.187 1273.91 413.58 1292.43 413.332C1310.95 413.085 1324.07 410.27 1324.07 410.27C1324.07 410.27 1313.53 391.18 1316.24 374.881C1318.97 358.366 1330.9 337.809 1315.81 321.314C1289.51 292.643 1256.69 314.71 1256.61 299.322C1256.43 287.244 1286.55 285.934 1301.75 292.001C1318.68 298.828 1310.58 256.899 1284.29 248.938C1248.87 237.468 1225.36 270.449 1214.15 265.177C1199.27 258.098 1229.31 241.4 1245.28 237.242C1261.25 233.083 1240.42 192.093 1201.46 179.964C1152.21 164.633 1105.16 198.523 1135.17 242.376Z" fill="white" fill-opacity="0.2"/>
</svg>
