<svg xmlns="http://www.w3.org/2000/svg" width="756.623" height="959.366" viewBox="0 0 756.623 959.366">
  <g id="winter-blad-transition" transform="translate(34.289 -0.664)">
    <path id="takje" d="M2174.28,2001.463l22.1-240.47,409.938-495.677,161.43,19.425-30.143,215.017-279.321,459.506-255.207,83.059-16.427,18.743-45.934,72.3-56.9-32.751,99.084-85.068Z" transform="translate(-2118.113 -1173.336)" fill="#e5efff"/>
    <g id="blad">
      <path id="Path_10" data-name="Path 10" d="M28.149,873.628c32.459-23.4,71.565-66.387,108.811-112.954C138.4,674.25,117.345,629.389,103.047,613.5q-2.265-2.29-4.688-4.4a34.036,34.036,0,0,1,4.688,4.4c34.74,35.128,41.973,100.856,41.127,138.082,20.873-26.516,40.978-53.84,58.783-79.089,5.209-55.17-16.748-149.651-29.071-192.243C206.6,593.133,211.88,644.68,209.731,662.829c15.126-21.709,28.317-41.522,38.53-57.472,8.3-14.837,18.444-31.553,30.03-49.653.836-93.415-22.432-162.661-34.471-186.041C268.8,401.3,279.991,499.408,282.772,548.745c26.518-40.948,59.863-88.409,95.5-136.957,1.028-30.948-9.847-95.975-16.306-128.826,10.176,21.739,17.3,85.287,20.356,123.316,32.449-44.07,66.638-88.866,99.186-130.348-1.529-20.64-6.579-59.334-16.64-88.2-3.477-8.27-6.831-15.581-9.607-21.23a112.034,112.034,0,0,1,9.607,21.23c10.362,24.643,21.823,57.8,22.379,80.9,29.855-37.917,58.143-72.808,82.205-101.5,10.9-13.886,19.478-24.027,25.127-29.465-7.689,8.84-16.111,18.717-25.127,29.465C543.764,199.863,505.2,253.4,461.786,315.186c32.019-5.934,89.434-14.995,106.714-11.635-29.016,2.2-89.248,9.144-112.655,20.1-17.394,24.8-35.495,50.815-53.8,77.253,27.758-10.6,87.818-24.773,134.953-6.627-24.471-6.965-85.536-13.674-139.369,13.006-24.728,35.739-49.756,72.137-73.856,107.273,28.639-10.308,89.3-26.211,144.451-21.416-34.759,1.687-110.121,9.357-148.136,26.789-16.3,23.772-32.145,46.916-47.147,68.83l-.371.541q-4.256,6.218-8.418,12.3c42.093-5.846,126.393-13.234,154.682.524-20.991-5.292-81.867-11.314-159.287,6.2-34.019,49.685-62.728,91.545-81.107,117.731,28.954-17.017,85.554-37.2,146.673-18.968-28.656-7.411-98.517-10.82-155.847,31.934q-2.888,4.038-5.156,7.132c-13.112,17.88-26.56,37.03-39.416,55.814,26.871-12.163,81.271-26.217,131.475-4.947-21.314-8.849-78.922-17.3-140.7,18.512-25.107,37.13-46.933,71.187-58,88.951,40.96,7.658,140.468,6.74,228.115-56.138C358.438,796.073,415.766,801.716,446.2,816.1c-27.312-19.863-56.24-53.575-27.346-84.075,34.893-36.832,90.464-41.193,113.888-38.77-34.732-17.769-89.172-60.577-29.078-89.654s88.041-36.348,94.5-36.348c-33.116-7.27-83.356-34.894-19.385-87.234,40.809-27.543,79.233-47.556,93.344-54.119-38.4,4.921-100.813.785-43.318-55.135,34.655-30.715,53.163-44.3,58.086-47.254-33.473,5.579-73.247-18.312,35.442-158.505-18.377,10.829-53.162,16.538-45.286-47.257,7.875-34.654,18.53-65.493,22.873-76.581-25.077,7.46-83.487,20.142-116.511,11.19C542.129,41.171,548.3,17.253,554.089.664c-13.117,21.346-46.682,64.811-76,67.9C441.435,72.42,444.136,35,446.836,19.951c-9.516,32.793-36.5,103.78-68.286,125.385-39.738,27.006-71.759,16.589-86.8-30.093.357,41.994-9.387,130.591-51.224,149.036-38.6,17.018-62.619-7.741-71.7-25.511,12.121,28.348,23.123,90.793-18.275,145.849-43.637,58.032-69.167,42.55-76.477,27.554,4.874,23.243,6.073,86.824-28.116,155.2C3.219,652.848-18.15,804.676,22.9,869.906Q25.654,871.763,28.149,873.628Z" fill="#304849"/>
      <path id="Path_11" data-name="Path 11" d="M166.856,234.475c.551,1.363,1.207,2.8,1.968,4.293Q167.84,236.468,166.856,234.475Z" fill="#304849"/>
      <path id="Path_12" data-name="Path 12" d="M462.47,826.532A69.078,69.078,0,0,0,446.2,816.1,161.308,161.308,0,0,0,462.47,826.532Z" fill="#304849"/>
    </g>
  </g>
</svg>
