<svg width="1478" height="1478" viewBox="0 0 1478 1478" fill="none" xmlns="http://www.w3.org/2000/svg">
<g clip-path="url(#clip0_212_174)">
<path d="M652.409 650.822C625 637.258 590.12 609.753 556.194 579.32C544.257 514.343 554.502 477.877 563.288 464.104C564.234 462.763 565.228 461.459 566.27 460.196C565.321 461.195 564.314 462.494 563.288 464.104C541.505 494.948 544.303 545.411 549.614 573.371C530.548 556 511.961 537.923 495.367 521.122C484.515 480.181 489.209 406.192 493.153 372.534C482.656 461.747 485.149 501.273 489.047 514.686C474.918 500.218 462.486 486.936 452.784 476.192C444.667 466.048 434.918 454.719 423.911 442.527C411.554 372.203 420.404 317.075 426.546 297.937C411.684 324.929 415.562 400.297 419.659 437.842C394.526 410.299 363.428 378.703 330.468 346.573C325.808 323.369 325.844 272.978 326.59 247.399C321.647 265.067 324.25 313.873 326.722 342.928C296.726 313.775 265.327 284.293 235.581 257.104C234.142 241.351 233.093 211.544 237.055 188.521C238.639 181.849 240.25 175.917 241.633 171.309C239.652 176.219 238.159 182.107 237.055 188.521C232.336 208.401 227.858 234.839 230.337 252.319C203.069 227.48 177.362 204.725 155.619 186.117C145.66 177.016 137.919 170.447 132.977 167.056C139.884 172.755 147.473 179.145 155.619 186.117C179.093 207.569 214.887 243.09 255.376 284.225C230.491 283.77 186.066 284.146 173.46 288.848C195.612 286.865 241.895 284.539 260.917 289.86C277.145 306.376 294.057 323.715 311.177 341.35C288.919 336.845 241.858 333.696 208.599 353.294C226.174 344.971 271.372 332.247 315.307 345.605C338.436 369.446 361.875 393.746 384.455 417.211C361.569 413.035 313.836 408.659 272.861 419.197C299.278 416.106 357.059 412.429 387.908 420.8C403.182 436.676 418.033 452.136 432.094 466.775L432.441 467.136C435.1 469.905 437.731 472.644 440.331 475.35C407.862 476.226 343.378 481.238 323.777 495.162C338.938 488.537 384.079 476.355 444.647 479.843C476.532 513.032 503.431 540.988 520.575 558.424C496.61 549.228 451.404 541.119 407.613 562.534C428.287 553.35 480.53 542.01 529.119 567.047C530.909 568.835 532.507 570.416 533.902 571.777C546.032 583.612 558.575 596.362 570.625 608.909C548.84 603.113 506.061 599.346 470.881 621.683C485.839 612.337 528.211 598.735 579.285 617.978C602.875 642.821 623.605 665.758 634.179 677.761C604.259 688.676 529.121 700.475 455.148 664.071C393.657 633.81 351.144 645.26 330.005 659.928C348.103 641.524 365.682 612.476 340.069 593.108C309.138 569.719 266.694 573.406 249.338 578.174C273.293 560.417 308.964 521.309 260.007 506.93C211.05 492.55 189.067 490.577 184.196 491.388C208.251 481.751 242.661 454.617 187.861 423.186C153.636 407.543 122.155 397.278 110.692 394.101C140.258 392.992 186.797 382.038 136.43 347.095C106.448 328.288 90.7878 320.369 86.7058 318.76C112.643 318.764 139.631 295.76 40.0884 203.706C55.3028 209.564 82.2451 209.502 68.2995 162.393C58.0119 137.254 46.1076 115.341 41.4413 107.527C61.2842 110.004 106.914 112.233 130.688 101.339C160.407 87.7204 152.75 70.4627 146.305 58.6818C158.874 73.1291 189.635 101.685 212.129 100.332C240.246 98.6399 233.512 70.7647 229.587 59.7598C240.879 83.2891 270.131 133.422 296.81 145.72C330.16 161.093 352.994 149.22 358.478 112.136C363.48 143.842 381.947 209.415 415.805 218.07C447.045 226.055 462.044 204.374 466.658 189.836C461.078 212.73 460.621 261.191 498.744 297.503C538.928 335.778 556.232 320.901 559.861 308.677C559.105 326.813 566.181 374.899 600.541 422.161C643.491 481.238 678.66 593.025 655.899 647.357C654.67 648.52 653.508 649.677 652.409 650.822Z" fill="white" fill-opacity="0.1"/>
<path d="M467.603 186.353C467.359 187.449 467.045 188.618 466.658 189.836C466.96 188.598 467.277 187.435 467.603 186.353Z" fill="white" fill-opacity="0.1"/>
<path d="M319.047 669.832C321.61 666.658 325.272 663.212 330.005 659.928C326.247 663.749 322.468 667.111 319.047 669.832Z" fill="white" fill-opacity="0.1"/>
<path d="M792.815 880.418C821.406 891.268 858.782 915.272 895.491 942.283C913.653 1005.8 906.981 1043.09 899.568 1057.65C898.756 1059.07 897.893 1060.47 896.978 1061.82C897.826 1060.74 898.702 1059.35 899.568 1057.65C918.267 1024.84 910.604 974.884 902.615 947.568C923.271 963.015 943.519 979.211 961.659 994.33C976.418 1034.03 978.898 1108.13 978.226 1142.01C980.05 1052.2 973.748 1013.1 968.572 1000.12C984.033 1013.16 997.691 1025.18 1008.39 1034.93C1017.45 1044.24 1028.24 1054.58 1040.38 1065.65C1059.47 1134.45 1056 1190.17 1051.73 1209.82C1063.92 1181.51 1052.77 1106.87 1045.06 1069.9C1072.74 1094.88 1106.75 1123.33 1142.66 1152.12C1149.54 1174.76 1154.38 1224.92 1156.11 1250.45C1159.32 1232.39 1152.01 1184.07 1146.74 1155.39C1179.41 1181.5 1213.52 1207.81 1245.75 1232C1248.71 1247.54 1252.63 1277.1 1250.91 1300.4C1249.98 1307.2 1248.95 1313.26 1248.02 1317.98C1249.52 1312.9 1250.43 1306.89 1250.91 1300.4C1253.69 1280.16 1255.59 1253.41 1251.43 1236.25C1280.97 1258.34 1308.76 1278.5 1332.2 1294.92C1342.99 1303.02 1351.33 1308.81 1356.58 1311.7C1349.15 1306.7 1340.98 1301.07 1332.2 1294.92C1306.76 1275.84 1267.7 1243.95 1223.43 1206.92C1248.24 1204.96 1292.42 1200.3 1304.51 1194.4C1282.66 1198.51 1236.81 1205.3 1217.37 1201.84C1199.62 1186.97 1181.11 1171.35 1162.36 1155.45C1184.95 1157.79 1232.1 1156.37 1263.31 1133.65C1246.62 1143.63 1202.86 1160.67 1157.84 1151.62C1132.52 1130.12 1106.84 1108.2 1082.1 1087.03C1105.28 1088.98 1153.21 1088.72 1192.98 1074.27C1166.98 1079.9 1109.83 1089.14 1078.31 1083.79C1061.58 1069.47 1045.3 1055.52 1029.89 1042.31L1029.51 1041.98C1026.59 1039.48 1023.71 1037.01 1020.86 1034.57C1053.09 1030.56 1116.79 1019.33 1134.95 1003.58C1120.5 1011.64 1076.75 1028.13 1016.13 1030.51C981.187 1000.56 951.712 975.335 932.963 959.639C957.705 966.475 1003.48 970.176 1045 944.628C1025.31 955.768 974.408 972.105 923.625 951.882C921.671 950.275 919.928 948.856 918.408 947.636C905.191 937.03 891.474 925.552 878.267 914.228C900.511 917.892 943.453 917.506 976.31 891.872C962.325 902.621 921.466 920.254 868.771 906.039C842.89 883.593 820.04 862.767 808.355 851.842C837.08 838.086 910.725 819.078 987.871 848.161C1052 872.337 1093.21 856.83 1112.83 840.188C1096.59 860.255 1081.91 890.867 1109.27 907.668C1142.32 927.957 1184.21 920.184 1201.02 913.761C1178.89 933.751 1147.17 976.123 1197.29 985.703C1247.41 995.282 1269.48 995.121 1274.25 993.843C1251.24 1005.76 1219.61 1036.09 1277.19 1062.08C1312.77 1074.34 1345.1 1081.52 1356.81 1083.57C1327.49 1087.53 1282.23 1102.93 1335.74 1132.84C1367.4 1148.66 1383.75 1155.03 1387.97 1156.24C1362.15 1158.74 1337.51 1184.25 1445.49 1266.25C1429.78 1261.89 1402.97 1264.55 1421.4 1310.09C1434.07 1334.12 1448.04 1354.78 1453.44 1362.11C1433.45 1361.56 1387.82 1363.75 1365.21 1376.89C1336.95 1393.32 1346.24 1409.76 1353.79 1420.86C1339.88 1407.7 1306.5 1382.25 1284.25 1385.77C1256.43 1390.17 1265.82 1417.26 1270.79 1427.84C1257.28 1405.51 1223.32 1358.44 1195.58 1348.78C1160.9 1336.7 1139.32 1350.73 1137.44 1388.17C1129.4 1357.09 1104.68 1293.61 1070.14 1288.27C1038.28 1283.34 1025.45 1306.37 1022.26 1321.29C1025.6 1297.96 1021.37 1249.68 979.914 1217.23C936.219 1183.02 920.434 1199.5 918.003 1212.01C917.003 1193.89 905.312 1146.71 866.544 1102.99C818.084 1048.35 772.274 940.482 789.676 884.204C790.787 882.927 791.832 881.663 792.815 880.418Z" fill="white" fill-opacity="0.1"/>
<path d="M1021.65 1324.85C1021.79 1323.73 1021.99 1322.54 1022.26 1321.29C1022.08 1322.55 1021.87 1323.74 1021.65 1324.85Z" fill="white" fill-opacity="0.1"/>
<path d="M1122.78 829.271C1120.53 832.678 1117.22 836.462 1112.83 840.188C1116.2 836.022 1119.64 832.31 1122.78 829.271Z" fill="white" fill-opacity="0.1"/>
<path d="M1058.92 184.409C1070.73 188.893 1086.18 198.813 1101.35 209.975C1108.86 236.224 1106.1 251.632 1103.03 257.649C1102.7 258.238 1102.34 258.814 1101.96 259.375C1102.31 258.926 1102.68 258.352 1103.03 257.649C1110.76 244.092 1107.6 223.447 1104.29 212.159C1112.83 218.543 1121.2 225.235 1128.69 231.483C1134.79 247.889 1135.82 278.509 1135.54 292.511C1136.29 255.397 1133.69 239.239 1131.55 233.878C1137.94 239.264 1143.58 244.231 1148 248.262C1151.75 252.11 1156.21 256.381 1161.22 260.956C1169.12 289.387 1167.68 312.415 1165.92 320.533C1170.95 308.837 1166.35 277.992 1163.16 262.712C1174.6 273.037 1188.65 284.791 1203.49 296.69C1206.34 306.048 1208.33 326.776 1209.05 337.326C1210.38 329.862 1207.36 309.891 1205.18 298.039C1218.68 308.832 1232.77 319.704 1246.09 329.699C1247.31 336.121 1248.94 348.339 1248.23 357.967C1247.84 360.774 1247.42 363.279 1247.03 365.229C1247.65 363.13 1248.03 360.649 1248.23 357.967C1249.37 349.601 1250.16 338.548 1248.44 331.457C1260.65 340.585 1272.13 348.917 1281.82 355.702C1286.28 359.048 1289.73 361.441 1291.89 362.638C1288.82 360.57 1285.45 358.245 1281.82 355.702C1271.31 347.817 1255.17 334.636 1236.87 319.335C1247.12 318.527 1265.38 316.598 1270.38 314.161C1261.34 315.861 1242.4 318.667 1234.36 317.238C1227.03 311.093 1219.38 304.637 1211.63 298.067C1220.97 299.031 1240.45 298.446 1253.35 289.057C1246.45 293.182 1228.37 300.221 1209.77 296.482C1199.3 287.6 1188.69 278.541 1178.46 269.792C1188.04 270.596 1207.85 270.488 1224.28 264.517C1213.54 266.844 1189.92 270.665 1176.9 268.454C1169.98 262.534 1163.26 256.768 1156.89 251.309L1156.73 251.174C1155.53 250.142 1154.34 249.12 1153.16 248.111C1166.48 246.453 1192.8 241.816 1200.31 235.306C1194.34 238.637 1176.26 245.45 1151.2 246.435C1136.76 234.058 1124.58 223.634 1116.83 217.147C1127.06 219.972 1145.98 221.502 1163.13 210.944C1155 215.548 1133.96 222.299 1112.98 213.942C1112.17 213.278 1111.45 212.691 1110.82 212.187C1105.36 207.804 1099.69 203.061 1094.23 198.381C1103.42 199.895 1121.17 199.736 1134.75 189.143C1128.97 193.585 1112.08 200.872 1090.31 194.997C1079.61 185.722 1070.17 177.115 1065.34 172.6C1077.21 166.916 1107.65 159.061 1139.53 171.079C1166.03 181.07 1183.06 174.662 1191.16 167.785C1184.46 176.077 1178.39 188.727 1189.69 195.67C1203.35 204.055 1220.66 200.843 1227.61 198.189C1218.47 206.449 1205.36 223.96 1226.07 227.918C1246.78 231.877 1255.9 231.81 1257.87 231.282C1248.36 236.207 1235.29 248.742 1259.09 259.481C1273.79 264.548 1287.15 267.512 1291.99 268.361C1279.87 269.999 1261.17 276.363 1283.28 288.723C1296.36 295.261 1303.12 297.893 1304.86 298.392C1294.2 299.426 1284.02 309.966 1328.64 343.852C1322.14 342.051 1311.06 343.153 1318.68 361.972C1323.92 371.901 1329.69 380.438 1331.92 383.466C1323.66 383.24 1304.8 384.146 1295.46 389.577C1283.78 396.365 1287.62 403.158 1290.74 407.746C1284.99 402.306 1271.2 391.789 1262 393.244C1250.51 395.063 1254.39 406.26 1256.44 410.63C1250.86 401.403 1236.82 381.951 1225.36 377.958C1211.03 372.968 1202.11 378.763 1201.34 394.235C1198.01 381.394 1187.8 355.161 1173.52 352.954C1160.36 350.917 1155.05 360.434 1153.74 366.598C1155.12 356.958 1153.37 337.008 1136.24 323.595C1118.18 309.457 1111.66 316.268 1110.65 321.44C1110.24 313.951 1105.41 294.455 1089.39 276.388C1069.36 253.805 1050.43 209.231 1057.62 185.974C1058.08 185.446 1058.51 184.924 1058.92 184.409Z" fill="white" fill-opacity="0.1"/>
<path d="M1153.49 368.068C1153.54 367.608 1153.63 367.115 1153.74 366.598C1153.66 367.119 1153.58 367.61 1153.49 368.068Z" fill="white" fill-opacity="0.1"/>
<path d="M1195.28 163.273C1194.35 164.681 1192.98 166.245 1191.16 167.785C1192.56 166.063 1193.98 164.529 1195.28 163.273Z" fill="white" fill-opacity="0.1"/>
<path d="M337.245 1267.43C325.429 1262.95 309.984 1253.03 294.814 1241.87C287.309 1215.62 290.066 1200.21 293.129 1194.2C293.465 1193.61 293.822 1193.03 294.2 1192.47C293.849 1192.92 293.487 1193.49 293.129 1194.2C285.402 1207.75 288.569 1228.4 291.87 1239.68C283.334 1233.3 274.967 1226.61 267.471 1220.36C261.371 1203.95 260.346 1173.33 260.624 1159.33C259.87 1196.45 262.475 1212.6 264.614 1217.97C258.224 1212.58 252.58 1207.61 248.16 1203.58C244.417 1199.73 239.954 1195.46 234.94 1190.89C227.048 1162.46 228.486 1139.43 230.248 1131.31C225.213 1143.01 229.819 1173.85 233.004 1189.13C221.566 1178.81 207.513 1167.05 192.672 1155.15C189.829 1145.8 187.831 1125.07 187.116 1114.52C185.788 1121.98 188.809 1141.95 190.986 1153.8C177.484 1143.01 163.391 1132.14 150.07 1122.14C148.849 1115.72 147.227 1103.5 147.937 1093.88C148.322 1091.07 148.747 1088.57 149.132 1086.61C148.513 1088.71 148.135 1091.19 147.937 1093.88C146.79 1102.24 146.004 1113.3 147.722 1120.39C135.514 1111.26 124.032 1102.93 114.345 1096.14C109.885 1092.8 106.439 1090.4 104.271 1089.21C107.339 1091.27 110.716 1093.6 114.345 1096.14C124.857 1104.03 140.999 1117.21 159.296 1132.51C149.042 1133.32 130.784 1135.25 125.787 1137.68C134.819 1135.98 153.763 1133.18 161.8 1134.61C169.134 1140.75 176.783 1147.21 184.529 1153.78C175.195 1152.81 155.712 1153.4 142.815 1162.79C149.711 1158.66 167.793 1151.62 186.398 1155.36C196.864 1164.24 207.475 1173.3 217.7 1182.05C208.12 1181.25 188.312 1181.36 171.879 1187.33C182.622 1185 206.241 1181.18 219.263 1183.39C226.18 1189.31 232.906 1195.08 239.274 1200.53L239.432 1200.67C240.636 1201.7 241.828 1202.72 243.005 1203.73C229.685 1205.39 203.362 1210.03 195.856 1216.54C201.828 1213.21 219.908 1206.39 244.96 1205.41C259.4 1217.79 271.581 1228.21 279.329 1234.7C269.104 1231.87 250.187 1230.34 233.03 1240.9C241.167 1236.3 262.202 1229.54 283.188 1237.9C283.995 1238.57 284.716 1239.15 285.344 1239.66C290.806 1244.04 296.474 1248.78 301.932 1253.46C292.74 1251.95 274.994 1252.11 261.416 1262.7C267.195 1258.26 284.08 1250.97 305.856 1256.85C316.551 1266.12 325.994 1274.73 330.823 1279.24C318.952 1284.93 288.519 1292.78 256.638 1280.76C230.138 1270.77 213.109 1277.18 205 1284.06C211.709 1275.77 217.779 1263.12 206.47 1256.17C192.814 1247.79 175.503 1251 168.555 1253.66C177.699 1245.39 190.808 1227.88 170.097 1223.93C149.386 1219.97 140.265 1220.03 138.294 1220.56C147.803 1215.64 160.873 1203.1 137.077 1192.36C122.375 1187.3 109.016 1184.33 104.175 1183.48C116.291 1181.85 134.996 1175.48 112.883 1163.12C99.7998 1156.58 93.0424 1153.95 91.2991 1153.45C101.967 1152.42 112.149 1141.88 67.5287 1107.99C74.0205 1109.79 85.0998 1108.69 77.4818 1089.87C72.2462 1079.94 66.4744 1071.41 64.243 1068.38C72.5035 1068.6 91.3605 1067.7 100.704 1062.27C112.384 1055.48 108.545 1048.69 105.423 1044.1C111.17 1049.54 124.964 1060.05 134.161 1058.6C145.659 1056.78 141.775 1045.58 139.722 1041.21C145.306 1050.44 159.34 1069.89 170.805 1073.89C185.136 1078.88 194.054 1073.08 194.828 1057.61C198.152 1070.45 208.368 1096.68 222.639 1098.89C235.808 1100.93 241.111 1091.41 242.428 1085.25C241.047 1094.89 242.795 1114.84 259.926 1128.25C277.983 1142.39 284.507 1135.58 285.511 1130.4C285.924 1137.89 290.756 1157.39 306.777 1175.46C326.802 1198.04 345.733 1242.61 338.542 1265.87C338.083 1266.4 337.651 1266.92 337.245 1267.43Z" fill="white" fill-opacity="0.1"/>
<path d="M242.677 1083.78C242.621 1084.24 242.538 1084.73 242.428 1085.25C242.503 1084.72 242.586 1084.23 242.677 1083.78Z" fill="white" fill-opacity="0.1"/>
<path d="M200.889 1288.57C201.816 1287.16 203.184 1285.6 205 1284.06C203.607 1285.78 202.187 1287.31 200.889 1288.57Z" fill="white" fill-opacity="0.1"/>
</g>
<defs>
<clipPath id="clip0_212_174">
<rect width="1478" height="1478" fill="white"/>
</clipPath>
</defs>
</svg>
