<svg width="723" height="908" viewBox="0 0 723 908" fill="none" xmlns="http://www.w3.org/2000/svg">
<path d="M28.1487 873.628C60.6082 850.233 99.714 807.241 136.96 760.674C138.404 674.25 117.345 629.389 103.047 613.5C101.537 611.973 99.9751 610.504 98.3593 609.097C99.7986 610.183 101.377 611.644 103.047 613.5C137.787 648.628 145.02 714.356 144.174 751.582C165.047 725.066 185.152 697.742 202.957 672.493C208.166 617.323 186.209 522.842 173.886 480.25C206.604 593.133 211.88 644.68 209.731 662.829C224.857 641.12 238.048 621.307 248.261 605.357C256.557 590.52 266.705 573.804 278.291 555.704C279.127 462.289 255.859 393.043 243.82 369.663C268.801 401.305 279.991 499.408 282.772 548.745C309.29 507.797 342.635 460.336 378.27 411.788C379.298 380.84 368.423 315.813 361.964 282.962C372.14 304.701 379.268 368.249 382.32 406.278C414.769 362.208 448.958 317.412 481.506 275.93C479.977 255.29 474.927 216.596 464.866 187.734C461.389 179.464 458.035 172.153 455.259 166.504C458.872 172.416 462.063 179.693 464.866 187.734C475.228 212.377 486.689 245.536 487.245 268.629C517.1 230.712 545.388 195.821 569.45 167.133C580.348 153.247 588.928 143.106 594.577 137.668C586.888 146.508 578.466 156.385 569.45 167.133C543.764 199.863 505.202 253.397 461.786 315.186C493.805 309.252 551.22 300.191 568.5 303.551C539.484 305.752 479.252 312.695 455.845 323.649C438.451 348.452 420.35 374.464 402.044 400.902C429.802 390.306 489.862 376.129 536.997 394.275C512.526 387.31 451.461 380.601 397.628 407.281C372.9 443.02 347.872 479.418 323.772 514.554C352.411 504.246 413.075 488.343 468.223 493.138C433.464 494.825 358.102 502.495 320.087 519.927C303.786 543.699 287.942 566.843 272.94 588.757L272.569 589.298C269.732 593.443 266.925 597.543 264.151 601.594C306.244 595.748 390.544 588.36 418.833 602.118C397.842 596.826 336.966 590.804 259.546 608.32C225.527 658.005 196.818 699.865 178.439 726.051C207.393 709.034 263.993 688.855 325.112 707.083C296.456 699.672 226.595 696.263 169.265 739.017C167.34 741.709 165.617 744.092 164.109 746.149C150.997 764.029 137.549 783.179 124.693 801.963C151.564 789.8 205.964 775.746 256.168 797.016C234.854 788.167 177.246 779.718 115.465 815.528C90.3579 852.658 68.5321 886.715 57.4654 904.479C98.4254 912.137 197.933 911.219 285.58 848.341C358.438 796.073 415.766 801.716 446.199 816.103C418.887 796.24 389.959 762.528 418.853 732.028C453.746 695.196 509.317 690.835 532.741 693.258C498.009 675.489 443.569 632.681 503.663 603.604C563.757 574.526 591.704 567.256 598.165 567.256C565.049 559.986 514.809 532.362 578.78 480.022C619.589 452.479 658.013 432.466 672.124 425.903C633.729 430.824 571.311 426.688 628.806 370.768C663.461 340.053 681.969 326.468 686.892 323.514C653.419 329.093 613.645 305.202 722.334 165.009C703.957 175.838 669.172 181.547 677.048 117.752C684.923 83.0975 695.578 52.2589 699.921 41.1714C674.844 48.6313 616.434 61.3132 583.41 52.3613C542.129 41.1714 548.302 17.2535 554.089 0.664062C540.972 22.0105 507.407 65.4751 478.086 68.5615C441.435 72.4195 444.136 34.9969 446.836 19.9507C437.32 52.7437 410.34 123.731 378.55 145.336C338.812 172.342 306.791 161.925 291.745 115.243C292.102 157.237 282.358 245.834 240.521 264.279C201.919 281.297 177.902 256.538 168.824 238.768C180.945 267.116 191.947 329.561 150.549 384.617C106.912 442.649 81.3822 427.167 74.072 412.171C78.9455 435.414 80.1451 498.995 45.9556 567.374C3.21863 652.848 -18.1499 804.676 22.9001 869.906C24.7363 871.144 26.4849 872.386 28.1487 873.628Z" fill="white"/>
<path d="M166.856 234.475C167.407 235.838 168.063 237.278 168.824 238.768C168.168 237.235 167.51 235.802 166.856 234.475Z" fill="white"/>
<path d="M462.47 826.532C458.48 822.985 453.014 819.325 446.199 816.103C451.87 820.227 457.471 823.754 462.47 826.532Z" fill="white"/>
</svg>
