<svg width="723" height="908" viewBox="0 0 723 908" fill="none" xmlns="http://www.w3.org/2000/svg">
<path d="M695.072 873.628C662.613 850.233 623.507 807.241 586.261 760.674C584.817 674.25 605.876 629.389 620.173 613.5C621.683 611.973 623.246 610.504 624.861 609.097C623.422 610.183 621.844 611.644 620.173 613.5C585.433 648.628 578.201 714.356 579.047 751.582C558.174 725.066 538.069 697.742 520.264 672.493C515.055 617.323 537.012 522.842 549.334 480.25C516.617 593.133 511.341 644.68 513.49 662.829C498.364 641.12 485.173 621.307 474.96 605.357C466.664 590.52 456.516 573.804 444.93 555.704C444.094 462.289 467.361 393.043 479.401 369.663C454.42 401.305 443.229 499.408 440.449 548.745C413.931 507.797 380.585 460.336 344.951 411.788C343.923 380.84 354.797 315.813 361.257 282.962C351.081 304.701 343.953 368.249 340.9 406.278C308.451 362.208 274.263 317.412 241.715 275.93C243.244 255.29 248.294 216.596 258.355 187.734C261.832 179.464 265.186 172.153 267.962 166.504C264.349 172.416 261.157 179.693 258.355 187.734C247.993 212.377 236.532 245.536 235.976 268.629C206.121 230.712 177.833 195.821 153.77 167.133C142.873 153.247 134.293 143.106 128.644 137.668C136.333 146.508 144.755 156.385 153.77 167.133C179.456 199.863 218.019 253.397 261.435 315.186C229.416 309.252 172.001 300.191 154.721 303.551C183.736 305.752 243.969 312.695 267.376 323.649C284.77 348.452 302.871 374.464 321.177 400.902C293.419 390.306 233.359 376.129 186.223 394.275C210.694 387.31 271.76 380.601 325.593 407.281C350.32 443.02 375.349 479.418 399.448 514.554C370.809 504.246 310.146 488.343 254.998 493.138C289.757 494.825 365.119 502.495 403.133 519.927C419.435 543.699 435.279 566.843 450.281 588.757L450.651 589.298C453.489 593.443 456.296 597.543 459.07 601.594C416.977 595.748 332.676 588.36 304.388 602.118C325.379 596.826 386.255 590.804 463.674 608.32C497.694 658.005 526.402 699.865 544.782 726.051C515.828 709.034 459.228 688.855 398.109 707.083C426.765 699.672 496.626 696.263 553.956 739.017C555.881 741.709 557.604 744.092 559.112 746.149C572.224 764.029 585.672 783.179 598.528 801.963C571.657 789.8 517.257 775.746 467.053 797.016C488.366 788.167 545.975 779.718 607.756 815.528C632.863 852.658 654.689 886.715 665.755 904.479C624.795 912.137 525.287 911.219 437.641 848.341C364.783 796.073 307.454 801.716 277.021 816.103C304.333 796.24 333.262 762.528 304.368 732.028C269.474 695.196 213.904 690.835 190.48 693.258C225.212 675.489 279.652 632.681 219.558 603.604C159.464 574.526 131.517 567.256 125.055 567.256C158.172 559.986 208.412 532.362 144.441 480.022C103.632 452.479 65.2075 432.466 51.0963 425.903C89.4919 430.824 151.909 426.688 94.4145 370.768C59.76 340.053 41.2513 326.468 36.3288 323.514C69.8019 329.093 109.576 305.202 0.886719 165.009C19.2637 175.838 54.0487 181.547 46.1732 117.752C38.2977 83.0975 27.6425 52.2589 23.2993 41.1714C48.3763 48.6313 106.786 61.3132 139.811 52.3613C181.092 41.1714 174.919 17.2535 169.132 0.664062C182.249 22.0105 215.814 65.4751 245.134 68.5615C281.785 72.4195 279.085 34.9969 276.384 19.9507C285.901 52.7437 312.881 123.731 344.671 145.336C384.408 172.342 416.43 161.925 431.476 115.243C431.118 157.237 440.862 245.834 482.7 264.279C521.302 281.297 545.319 256.538 554.397 238.768C542.276 267.116 531.274 329.561 572.672 384.617C616.309 442.649 641.839 427.167 649.149 412.171C644.275 435.414 643.076 498.995 677.265 567.374C720.002 652.848 741.371 804.676 700.321 869.906C698.484 871.144 696.736 872.386 695.072 873.628Z" fill="white"/>
<path d="M556.365 234.475C555.814 235.838 555.158 237.278 554.397 238.768C555.052 237.235 555.711 235.802 556.365 234.475Z" fill="white"/>
<path d="M260.751 826.532C264.741 822.985 270.207 819.325 277.021 816.103C271.351 820.227 265.75 823.754 260.751 826.532Z" fill="white"/>
</svg>
