<svg width="848" height="897" viewBox="0 0 848 897" fill="none" xmlns="http://www.w3.org/2000/svg">
<path d="M185.02 664.767C185.407 677.127 187.097 692.319 192.435 709.434C205.717 749.328 211.458 738.767 203.647 706.762C198.96 688.562 201.97 656.539 206.41 633.137C210.582 628.186 214.755 623.235 218.928 618.283C228.307 639.673 249.41 681.542 277.164 713.332C316.125 757.464 333.074 749.236 291.768 701.008C261.798 665.905 242.26 623.43 233.663 601.738C235.751 599.262 237.967 597.57 240.054 595.094C248.53 585.976 257.788 576.555 267.047 567.133C285.943 580.667 334.814 614.292 384.599 643.391C448.069 679.704 425.789 650.799 387.472 630.604C358.278 615.217 309.411 566.58 288.432 545.511C315.554 518.333 343.33 490.068 371.756 460.717C391.568 469.729 435.75 490.156 482.804 502.8C546.41 519.877 529.47 503.084 476.292 483.636C437.322 469.532 404.218 450.653 390.273 441.874C430.827 400.324 472.164 358.469 510.632 319.394C529.009 324.79 588.315 341.031 630.029 336.559C669.398 332.996 663.274 326.193 622.994 324.271C587.8 322.883 539.313 306.623 526.932 302.242C637.379 190.27 644.813 179.888 644.813 179.888C644.813 179.888 491.338 323.526 441.527 369.494C433.578 361.729 423.547 346.43 418.209 324.311C410.921 290.437 403.362 285.023 408.042 323.243C411.161 352.059 421.711 375.497 425.879 385.558C388.977 419.024 352.206 453.274 316.609 484.566C310.354 476.978 297.455 459.454 287.43 424.138C273.369 374.538 259.553 371.546 273.35 429.588C282.332 468.644 291.187 491.904 296.398 503.23C276.709 520.026 258.584 536.216 240.329 551.621C219.608 537.125 167.089 496.572 142.595 459.351C112.239 411.889 105.853 408.523 134.251 464.248C156.396 507.384 198.224 553.741 216.207 571.8C208.905 577.962 202.255 583.039 195.735 588.898C181.007 585.425 157.025 576.36 136.566 558.426C105.291 530.501 94.8584 537.875 131.347 572.122C149.981 589.095 165.621 598.053 177.091 601.953C133.934 627.831 87.794 615.668 68.6347 605.571C-58.3081 542.954 8.90308 310.945 136.69 193.096C235.659 102.246 266.083 335.659 310.419 286.806C355.409 236.866 168.265 107.483 398.749 51.6258C503.562 26.0669 445.503 177.808 490.735 179.481C560.343 182.56 456.628 44.2341 561.702 20.2422C610.718 9.60843 649.174 5.56407 716.828 1.89511C784.483 -1.77575 833.103 5.25814 833.103 5.25814C833.103 5.25814 799.316 77.5491 813.244 136.373C827.303 195.983 875.899 268.076 824.909 332.014C735.97 443.167 610.726 370.719 614.226 426.909C616.557 471.041 726.837 468.385 780.812 442.488C840.915 413.387 821.701 568.439 727.703 603.989C601.243 654.607 507.297 540.021 467.662 562.035C415.12 591.546 528.9 645.081 588.207 656.316C647.514 667.554 581.633 822.322 442.397 876.217C266.396 944.344 86.286 832.253 185.02 664.767Z" fill="white"/>
</svg>
